<svg width="22" height="22" viewBox="0 0 22 22" fill="none" xmlns="http://www.w3.org/2000/svg">
<g clip-path="url(#clip0_1_800)">
<path d="M0 20.8005C0 14.8943 0 8.98815 0 3.08152C0.022387 3.01366 0.0456351 2.9458 0.0671611 2.8775C0.251854 2.28907 0.722843 1.88759 1.33203 1.87007C2.14011 1.84731 2.94949 1.86613 3.75801 1.86788C3.76877 1.86788 3.77953 1.88321 3.80752 1.90466C3.80752 1.97033 3.80752 2.04914 3.80752 2.12839C3.80752 2.80482 3.79245 3.48169 3.81484 4.15681C3.82431 4.43307 3.86521 4.73079 3.9793 4.97684C4.29228 5.65108 4.86488 5.89364 5.57911 5.88138C6.59858 5.8643 7.25727 5.2067 7.26029 4.17125C7.26201 3.48037 7.26029 2.78949 7.26029 2.09861C7.26029 2.022 7.26029 1.94582 7.26029 1.8762H14.9012C14.9059 1.90773 14.9102 1.92217 14.9102 1.93662C14.9111 2.68573 14.9072 3.43484 14.9132 4.18351C14.9188 4.88665 15.2176 5.41904 15.8535 5.71632C16.2917 5.92122 16.7644 5.90195 17.2242 5.80782C17.9919 5.65065 18.3621 5.17911 18.3673 4.38316C18.3724 3.62704 18.3686 2.87049 18.3686 2.11438C18.3686 2.03601 18.3686 1.95764 18.3686 1.87182C18.44 1.86657 18.4887 1.85957 18.5373 1.85957C19.2033 1.85869 19.8689 1.85475 20.5349 1.86044C21.396 1.86788 21.9978 2.47208 21.9983 3.34553C22.0013 9.06827 22.0017 14.7914 21.9935 20.5142C21.9935 20.7397 21.9423 20.9835 21.8472 21.1862C21.5708 21.7742 21.0744 22.0019 20.4471 21.9997C18.772 21.994 17.0964 21.9975 15.4212 21.9975C10.8177 21.9975 6.21413 22.0001 1.61058 21.991C1.33246 21.9905 1.03755 21.9358 0.780533 21.8316C0.335806 21.6516 0.130017 21.2467 0 20.8005ZM20.5767 7.53896H1.42416V20.5615H20.5767V7.53896Z" fill="#F39D22"/>
<path d="M6.55896 2.6279C6.55896 3.16598 6.568 3.70406 6.55595 4.2417C6.54389 4.7811 6.22574 5.11953 5.71686 5.16594C5.07237 5.22461 4.65219 4.98381 4.53724 4.4825C4.51485 4.38487 4.51184 4.28111 4.51184 4.17997C4.51012 3.14059 4.51485 2.1012 4.50882 1.06182C4.50624 0.644137 4.64444 0.298698 5.04009 0.155093C5.462 0.00185588 5.9007 -0.0139056 6.27568 0.310957C6.49955 0.504911 6.55939 0.771981 6.55939 1.05875C6.55939 1.58195 6.55939 2.10558 6.55939 2.62877L6.55896 2.6279Z" fill="#F39D22"/>
<path d="M17.6629 2.61298C17.6629 3.14361 17.6655 3.67425 17.6621 4.20489C17.6582 4.77624 17.3142 5.13219 16.755 5.13744C16.578 5.1392 16.3929 5.1392 16.225 5.09104C15.8849 4.99384 15.689 4.7456 15.6352 4.39009C15.6201 4.29026 15.6167 4.18738 15.6167 4.0858C15.6154 3.0902 15.6145 2.09416 15.6167 1.09856C15.618 0.206719 16.4411 -0.274445 17.2178 0.165126C17.5097 0.330622 17.6591 0.593752 17.6612 0.933938C17.6647 1.49347 17.6621 2.05344 17.6621 2.61298H17.6629Z" fill="#F39D22"/>
<path d="M4.73917 19.1809C4.35256 19.1809 3.96638 19.1766 3.57978 19.1827C3.38217 19.1857 3.29305 19.1083 3.2952 18.8998C3.30123 18.2168 3.30037 17.5334 3.29563 16.8504C3.29434 16.6665 3.37098 16.582 3.55007 16.582C4.34438 16.5829 5.13869 16.5829 5.933 16.582C6.11167 16.582 6.18873 16.6696 6.18744 16.8526C6.18356 17.5356 6.18227 18.219 6.18744 18.902C6.18916 19.1126 6.09186 19.1849 5.8977 19.1818C5.51152 19.1766 5.12491 19.1801 4.73831 19.1801L4.73917 19.1809Z" fill="#F39D22"/>
<path d="M8.85148 19.1809C8.46487 19.1809 8.07869 19.1778 7.69209 19.1822C7.50352 19.1844 7.42043 19.1051 7.42172 18.9086C7.42689 18.2256 7.42732 17.5421 7.42172 16.8591C7.42 16.663 7.50007 16.5811 7.68864 16.5815C8.47563 16.5837 9.26305 16.5833 10.05 16.582C10.2408 16.582 10.3152 16.6748 10.314 16.8661C10.3088 17.5421 10.3084 18.2181 10.314 18.8941C10.3157 19.0986 10.2317 19.1853 10.0324 19.1826C9.6389 19.1774 9.2454 19.1813 8.85148 19.1813V19.1809Z" fill="#F39D22"/>
<path d="M12.9789 19.1807C12.5923 19.1807 12.2061 19.1777 11.8195 19.182C11.6322 19.1842 11.5453 19.1081 11.5466 18.9102C11.5513 18.2197 11.5509 17.5293 11.547 16.8388C11.5461 16.6641 11.6228 16.5827 11.7907 16.5827C12.5923 16.5827 13.3935 16.5823 14.1951 16.5827C14.3626 16.5827 14.4384 16.669 14.4375 16.8419C14.4341 17.5323 14.4336 18.2228 14.4375 18.9132C14.4388 19.1137 14.3423 19.1829 14.1589 19.1812C13.7655 19.1772 13.372 19.1799 12.978 19.1799L12.9789 19.1807Z" fill="#F39D22"/>
<path d="M17.1162 19.1808C16.7296 19.1808 16.3434 19.1764 15.9568 19.1825C15.76 19.1856 15.6705 19.1103 15.6727 18.9006C15.6795 18.2246 15.6795 17.5486 15.6727 16.8726C15.6705 16.6686 15.7463 16.5797 15.9478 16.5806C16.7279 16.5841 17.508 16.5836 18.2876 16.5806C18.4878 16.5797 18.567 16.6699 18.5649 16.8735C18.5584 17.542 18.5632 18.211 18.5619 18.8796C18.5614 19.1296 18.5102 19.179 18.254 19.1799C17.8748 19.1817 17.4955 19.1799 17.1162 19.1799V19.1808Z" fill="#F39D22"/>
<path d="M13.0116 9.30754C13.3978 9.30754 13.7844 9.31104 14.1706 9.30622C14.3613 9.3036 14.4401 9.38635 14.4388 9.58161C14.4336 10.2646 14.434 10.9476 14.4388 11.6306C14.4401 11.8289 14.3509 11.9003 14.1637 11.8994C13.384 11.8951 12.6039 11.8942 11.8242 11.8999C11.6193 11.9016 11.5453 11.8145 11.547 11.6118C11.553 10.9362 11.5534 10.2602 11.547 9.58468C11.5448 9.37365 11.6357 9.30228 11.832 9.30579C12.2255 9.31279 12.619 9.30798 13.0125 9.30798L13.0116 9.30754Z" fill="#F39D22"/>
<path d="M17.136 9.30749C17.5222 9.30749 17.9088 9.31099 18.2949 9.30617C18.4848 9.30354 18.5657 9.38454 18.5644 9.58025C18.5593 10.2632 18.5597 10.9462 18.5644 11.6292C18.5657 11.8267 18.4783 11.8998 18.2902 11.8989C17.5105 11.8946 16.7304 11.8937 15.9508 11.8994C15.7467 11.9011 15.6714 11.8162 15.6735 11.6126C15.68 10.937 15.6804 10.2611 15.6735 9.5855C15.6714 9.37447 15.7596 9.30179 15.9568 9.3053C16.3503 9.3123 16.7438 9.30749 17.1373 9.30749H17.136Z" fill="#F39D22"/>
<path d="M4.72797 15.5348C4.34868 15.5348 3.96982 15.5366 3.59053 15.5344C3.33696 15.5326 3.29864 15.4959 3.29821 15.2463C3.29606 14.5778 3.29649 13.9092 3.29821 13.2411C3.29907 12.9876 3.33954 12.9464 3.58408 12.946C4.35686 12.9447 5.12921 12.9486 5.90199 12.9434C6.10046 12.9421 6.19001 13.0156 6.18829 13.224C6.18269 13.8996 6.18226 14.5756 6.18829 15.2511C6.19044 15.4569 6.10908 15.5405 5.90802 15.537C5.51453 15.5305 5.12103 15.5353 4.72754 15.5353L4.72797 15.5348Z" fill="#F39D22"/>
<path d="M8.86786 12.9452C9.25404 12.9452 9.64065 12.9505 10.0268 12.943C10.2244 12.9391 10.3157 13.0144 10.314 13.2232C10.3088 13.9062 10.3097 14.5892 10.3135 15.2722C10.3144 15.4566 10.2356 15.5362 10.0557 15.5358C9.26179 15.5332 8.46748 15.5332 7.6736 15.5358C7.48934 15.5367 7.42132 15.4504 7.42218 15.2687C7.42691 14.5857 7.42777 13.9027 7.42175 13.2197C7.42002 13.0083 7.51259 12.9391 7.7089 12.943C8.09508 12.9509 8.48126 12.9452 8.86786 12.9452Z" fill="#F39D22"/>
<path d="M12.9982 15.5343C12.6048 15.5343 12.2113 15.5303 11.8178 15.536C11.6292 15.5387 11.5448 15.4638 11.5465 15.2655C11.5521 14.5825 11.5517 13.8995 11.5465 13.2165C11.5452 13.0225 11.6227 12.9415 11.8152 12.9424C12.6022 12.9472 13.3892 12.9463 14.1761 12.9428C14.3552 12.942 14.4383 13.0173 14.4375 13.2029C14.4345 13.8933 14.434 14.5833 14.4375 15.2738C14.4388 15.4603 14.3565 15.5365 14.1779 15.5352C13.7844 15.5317 13.3909 15.5343 12.9974 15.5343H12.9982Z" fill="#F39D22"/>
<path d="M17.1235 12.9452C17.5097 12.9452 17.8963 12.9504 18.2824 12.943C18.4835 12.9391 18.5662 13.0218 18.5644 13.2276C18.5588 13.9031 18.558 14.5791 18.5644 15.2547C18.5666 15.464 18.4775 15.538 18.2803 15.5366C17.5006 15.5318 16.721 15.5323 15.9408 15.5366C15.7506 15.5375 15.6709 15.4613 15.6726 15.2643C15.6787 14.5813 15.6782 13.8983 15.6726 13.2153C15.6713 13.0192 15.7514 12.9404 15.9426 12.9434C16.3361 12.9496 16.7296 12.9452 17.1231 12.9452H17.1235Z" fill="#F39D22"/>
</g>
<defs>
<clipPath id="clip0_1_800">
<rect width="22" height="22" fill="white"/>
</clipPath>
</defs>
</svg>
