<svg width="71" height="70" viewBox="0 0 71 70" fill="none" xmlns="http://www.w3.org/2000/svg">
<g clip-path="url(#clip0_1_214)">
<path d="M70.0057 34.8432C69.9503 34.7651 69.895 34.687 69.841 34.6118C69.5742 34.2342 69.3229 33.8793 69.049 33.594C67.5997 32.0866 65.9929 30.4613 63.9901 28.4798C63.3173 27.8141 63.1143 27.0419 63.3684 26.1207C63.8637 24.3208 64.3449 22.4812 64.8091 20.7012C64.978 20.0511 65.1483 19.4024 65.3187 18.7523C65.6253 17.5869 65.3882 17.1796 64.2186 16.8588L63.3272 16.6146C61.1867 16.0284 58.9723 15.4209 56.7921 14.846C55.9219 14.616 55.3868 14.0837 55.1569 13.215C54.4812 10.6686 53.7857 8.15472 53.0745 5.58836C52.8162 4.65862 52.3776 4.4017 51.4535 4.63875C49.0419 5.26047 46.4485 5.93471 43.8141 6.65578C42.9454 6.89425 42.2143 6.69979 41.5798 6.06388C39.6522 4.12775 38.027 2.50958 36.3591 0.905607C36.0894 0.645848 35.7459 0.405962 35.3825 0.1533C35.3102 0.1022 35.2363 0.0511001 35.1625 0H34.8573C34.7835 0.0525195 34.7111 0.1022 34.6402 0.1533C34.2768 0.408801 33.9333 0.648687 33.6622 0.909865C32.0866 2.42583 30.396 4.0951 28.494 6.01561C27.8311 6.68559 27.0603 6.88715 26.1363 6.63449C23.506 5.91341 20.8488 5.2264 18.5635 4.63875C17.6409 4.4017 17.2009 4.65862 16.9439 5.58978C16.264 8.04258 15.5429 10.6529 14.8602 13.2179C14.6274 14.0894 14.0937 14.6246 13.2278 14.8517C11.3896 15.3343 9.52307 15.8467 7.71753 16.3407C7.07878 16.5153 6.44003 16.6913 5.79986 16.8659C4.61604 17.1895 4.38893 17.5756 4.69695 18.7495C4.86586 19.3939 5.03478 20.0397 5.20369 20.6842C5.66927 22.4684 6.15188 24.3137 6.64869 26.1178C6.90277 27.0405 6.69979 27.8112 6.02981 28.4755C4.67424 29.8197 3.30873 31.2051 1.98723 32.5437C1.52591 33.0121 1.06317 33.4805 0.600428 33.9489C-0.198721 34.7566 -0.20014 35.2236 0.596169 36.0284L1.8467 37.2945C3.22924 38.6955 4.66004 40.1434 6.07665 41.5557C6.70973 42.1874 6.90277 42.917 6.66572 43.7871C5.94748 46.4244 5.27466 49.0177 4.65437 51.428C4.41874 52.3449 4.68276 52.7991 5.59688 53.0504L6.91271 53.4124C8.98084 53.983 11.1199 54.572 13.2264 55.1299C14.0965 55.3598 14.6317 55.8935 14.8616 56.7608C15.5387 59.3158 16.2399 61.8637 16.9014 64.2541C17.2122 65.3769 17.6125 65.6011 18.7637 65.2974C19.4265 65.1228 20.0908 64.9496 20.7537 64.775C22.4982 64.3194 24.3009 63.8467 26.0653 63.3627C26.3378 63.2874 26.5976 63.2505 26.8446 63.2505C27.4876 63.2505 28.0497 63.5032 28.5507 64.0128C29.8283 65.313 31.1512 66.616 32.4315 67.8779C32.9269 68.3662 33.4223 68.8531 33.9163 69.3414C34.7977 70.2129 35.2264 70.2158 36.1008 69.3513L37.2619 68.2044C38.6813 66.8034 40.1476 65.3542 41.5784 63.9205C42.2172 63.2803 42.9468 63.0845 43.8098 63.3215C46.4301 64.0397 49.0291 64.7168 51.4493 65.34C52.3648 65.5756 52.8219 65.3116 53.0759 64.396C53.7544 61.9517 54.4741 59.3499 55.1597 56.7693C55.3911 55.8992 55.9248 55.3641 56.7935 55.1356C58.9595 54.5664 61.1583 53.9631 63.286 53.3797L64.2214 53.1228C65.3939 52.802 65.631 52.3946 65.3243 51.2307C65.1526 50.5791 64.9823 49.9262 64.8119 49.2732C64.3478 47.4961 63.868 45.6579 63.374 43.8623C63.1199 42.9397 63.3229 42.1675 63.9957 41.5032C65.9943 39.5245 67.6011 37.8992 69.0547 36.3889C69.3286 36.1036 69.5813 35.7473 69.8481 35.3712C69.9021 35.2945 69.9574 35.2179 70.0128 35.1398V34.8417L70.0057 34.8432ZM66.6799 35.956C66.4159 36.1874 66.1675 36.3989 65.9319 36.6004C65.4706 36.9936 65.0731 37.3343 64.7111 37.6877C64.132 38.2541 63.55 38.8474 62.9865 39.4194C62.4102 40.0057 61.8141 40.6118 61.2122 41.2009C60.7395 41.6636 60.6288 42.0752 60.8048 42.7239C61.2605 44.4045 61.6934 46.0554 62.1505 47.8027C62.335 48.5096 62.5224 49.2236 62.7126 49.9446L63.0348 51.1682L56.5735 52.9354C56.3634 52.9936 56.1533 53.0532 55.9432 53.1128C55.4947 53.2406 55.0305 53.3726 54.555 53.4862C53.9532 53.6295 53.6679 53.9148 53.5032 54.5394C53.0731 56.1647 52.6189 57.8084 52.1789 59.3982C52.0156 59.9886 51.8524 60.5777 51.6906 61.1682C51.6508 61.3144 51.6054 61.4521 51.5586 61.5983C51.5358 61.6664 51.5131 61.7402 51.4876 61.8212L51.1228 62.9794L48.3974 62.2711C47.2491 61.973 46.1065 61.6764 44.9638 61.3769C44.186 61.1739 43.4081 60.9652 42.6317 60.7566C42.0795 60.6075 41.7005 60.714 41.2789 61.1356C40.0185 62.396 38.7296 63.6664 37.4833 64.8957L36.3392 66.0241C36.2285 66.1334 36.1263 66.2229 35.983 66.3492C35.9092 66.4131 35.8226 66.4897 35.7147 66.5862L34.7963 67.4053L32.8361 65.3669C31.6749 64.159 30.5224 62.9595 29.3684 61.7615C29.3102 61.7005 29.2491 61.6423 29.1881 61.5841C29.0816 61.4819 28.961 61.3655 28.8403 61.2321C28.3719 60.714 27.9248 60.599 27.1909 60.8077C25.6437 61.2463 24.0667 61.6537 22.5422 62.0454C21.9404 62.2001 21.34 62.3549 20.7395 62.5124C20.5763 62.555 20.4202 62.5891 20.2541 62.6246C20.1774 62.6416 20.0965 62.6586 20.0085 62.6785L18.8219 62.9439L18.0866 60.2768C17.7473 59.0461 17.4081 57.8183 17.0717 56.5919C17.0305 56.4443 16.9894 56.2967 16.9468 56.149C16.8233 55.7161 16.6941 55.2676 16.6004 54.7949C16.4386 53.9815 16.0539 53.5997 15.181 53.3854C13.6352 53.0064 12.0852 52.5749 10.5862 52.1561C9.99148 51.9901 9.39532 51.824 8.79915 51.6622C8.63733 51.6182 8.48829 51.5657 8.34493 51.516C8.28389 51.4947 8.2186 51.472 8.14904 51.4478L7.01633 51.0688L7.31867 49.9134C7.49184 49.2548 7.65933 48.582 7.82257 47.9333C8.20582 46.406 8.60185 44.8247 9.08446 43.286C9.42939 42.186 9.25053 41.5259 8.40029 40.7665C7.22215 39.7119 6.10504 38.6217 4.92406 37.4677C4.41306 36.9695 3.89212 36.4599 3.35273 35.9418L2.36054 34.9879L3.3868 34.0696C3.60682 33.8723 3.8098 33.6948 4.00142 33.5273C4.36338 33.2108 4.67708 32.9368 4.95813 32.6586C5.50745 32.1136 6.06246 31.5486 6.59901 31.0035C7.30163 30.2896 8.02839 29.5515 8.76225 28.8346C9.27183 28.3364 9.38964 27.8921 9.1966 27.1952C8.73528 25.5316 8.3137 23.8992 7.86515 22.1718C7.68347 21.472 7.50178 20.7665 7.31441 20.0554L6.99787 18.8474L8.19872 18.5039C8.4088 18.4443 8.61746 18.3833 8.82328 18.3236C9.26473 18.1959 9.72179 18.0639 10.1746 17.9404C10.5933 17.8268 11.0121 17.7104 11.4308 17.5955C12.6799 17.252 13.9702 16.8957 15.2562 16.5763C16.027 16.3847 16.3875 16.0256 16.5834 15.2505C17.0021 13.5983 17.4464 11.9957 17.9163 10.2981C18.1093 9.60256 18.3023 8.90277 18.4954 8.19588L18.8275 6.978L21.4067 7.64798C22.4528 7.92051 23.4847 8.18737 24.5153 8.45706L25.1114 8.61178C25.8212 8.79631 26.555 8.98652 27.2803 9.19659C27.9148 9.38112 28.3336 9.27182 28.775 8.8105C29.9801 7.55146 31.2165 6.27111 32.4131 5.03194C32.9155 4.51242 33.4195 3.99006 33.9262 3.46487L34.7637 2.59759L35.6778 3.38254C35.7814 3.47197 35.868 3.54436 35.9432 3.60681C36.0979 3.73598 36.2214 3.8396 36.3492 3.96593C36.7608 4.3719 37.1739 4.77786 37.5869 5.18382C38.775 6.3506 40.0028 7.55571 41.1938 8.76508C41.6778 9.25621 42.1079 9.37119 42.7807 9.18808C44.4613 8.7296 46.1065 8.30234 47.8481 7.84954C48.5493 7.66785 49.2534 7.48474 49.9631 7.29879L51.1838 6.97942L52.9525 13.3982C53.0064 13.5955 53.0618 13.7928 53.1171 13.9901C53.2534 14.4741 53.3939 14.9737 53.5188 15.4791C53.6608 16.0568 53.9375 16.3307 54.5394 16.4911C56.1916 16.9312 57.8637 17.3925 59.4819 17.8396C60.0426 17.9943 60.6033 18.149 61.1654 18.3038C61.3244 18.3478 61.472 18.3946 61.6267 18.4443C61.6962 18.467 61.7701 18.4897 61.8481 18.5138L63.0121 18.8758L62.7041 20.0554C62.5209 20.7551 62.3421 21.4521 62.1647 22.1462C61.7431 23.7899 61.3073 25.489 60.8375 27.1498C60.626 27.8978 60.7495 28.3492 61.3102 28.8772C62.5408 30.0369 63.7544 31.2079 65.039 32.4471C65.5869 32.9766 66.1476 33.5174 66.7268 34.0738L67.7303 35.039L66.6828 35.956H66.6799Z" fill="#1F1F1F"/>
<path d="M24.8741 46.6658C29.2744 42.2712 33.6733 37.8737 38.0721 33.4763L42.3489 29.2009C42.7506 28.7992 43.1552 28.3989 43.5597 27.9986C44.5916 26.978 45.6577 25.922 46.6612 24.8574C46.8571 24.6501 47.0217 24.318 47.1537 24.0511C47.1566 24.0469 47.158 24.0426 47.1608 24.0384C47.1112 23.6097 46.9366 23.2392 46.6726 23.0164C46.5264 22.8943 46.3745 22.8333 46.2183 22.8333C46.18 22.8333 46.1417 22.8375 46.1034 22.8446C45.7755 22.9071 45.3539 23.1399 45.0814 23.411C39.0615 29.3925 32.9607 35.4947 27.0601 41.3968L23.3397 45.1171C23.2446 45.2122 23.1537 45.3017 23.0941 45.3769C22.718 45.8425 22.7705 46.4727 23.219 46.8758C23.8819 47.472 24.542 47.0007 24.877 46.6672L24.8741 46.6658Z" fill="#1F1F1F"/>
<path d="M25.5231 18.8701H25.5146C23.7587 18.8701 22.0937 19.5713 20.8276 20.8446C19.5629 22.115 18.8716 23.7786 18.883 25.5273C18.9042 29.171 21.8794 32.1363 25.5146 32.1391H25.5203C27.2804 32.1391 28.9454 31.4393 30.2101 30.1689C31.4734 28.8999 32.1647 27.2349 32.1548 25.4805C32.1363 21.8396 29.1612 18.8744 25.5231 18.8701ZM25.5501 29.9276H25.5217C24.3251 29.9276 23.2108 29.472 22.3819 28.6416C21.5444 27.8041 21.0874 26.6771 21.0959 25.4663C21.1115 23.005 23.0547 21.0802 25.5217 21.0802H25.5331C28.0015 21.0859 29.939 23.0248 29.9419 25.4933C29.9461 27.9631 28.0171 29.9106 25.5501 29.9262V29.9276Z" fill="#1F1F1F"/>
<path d="M44.4987 37.8467H44.4845C40.845 37.8552 37.8741 40.8233 37.8614 44.4641C37.8557 46.22 38.5526 47.8878 39.823 49.1582C41.0863 50.4216 42.74 51.1157 44.4831 51.1157H44.5072C48.1467 51.1029 51.119 48.132 51.1332 44.4954C51.1403 42.7424 50.4476 41.0788 49.1829 39.8112C47.9181 38.5436 46.2546 37.8467 44.4987 37.8467ZM44.5399 48.9042C44.5285 48.9042 44.5157 48.9042 44.503 48.9042C43.3064 48.9042 42.1935 48.4499 41.3631 47.6224C40.5257 46.7878 40.0672 45.6622 40.0729 44.4556C40.0842 41.99 42.026 40.0582 44.4944 40.0582H44.4973C46.9671 40.0596 48.9089 41.9929 48.9189 44.4599C48.9274 46.934 47.004 48.8857 44.5384 48.9042H44.5399Z" fill="#1F1F1F"/>
</g>
<defs>
<clipPath id="clip0_1_214">
<rect width="70.0071" height="70" fill="white"/>
</clipPath>
</defs>
</svg>
