<svg width="36" height="36" viewBox="0 0 36 36" fill="none" xmlns="http://www.w3.org/2000/svg">
<rect x="0.5" y="0.5" width="35" height="35" rx="17.5" fill="#1D3052" stroke="white"/>
<g clip-path="url(#clip0_1_696)">
<path d="M13 14.6845C13.4335 14.651 13.8502 14.7237 14.1439 14.5643C14.4991 14.3713 14.8767 14.0329 15.0109 13.6693C15.1619 13.2582 15.0417 12.7491 15.0613 12.2849C15.1899 9.40135 16.4205 8.14838 19.2816 8.01973C20.2074 7.97777 21.1387 8.01413 22.2015 8.01413V11.3647C21.2198 11.5857 20.0955 11.5409 19.4662 12.0779C19.0355 12.4443 19.29 13.6189 19.2285 14.5922H22.2714C22.1652 15.7893 22.0729 16.8269 21.9694 17.9932H19.2509V28.0001H15.0668V18.1442C14.3005 18.0743 13.6768 18.0183 13 17.9596V14.6845Z" fill="white"/>
</g>
<defs>
<clipPath id="clip0_1_696">
<rect width="9.27143" height="20" fill="white" transform="translate(13 8)"/>
</clipPath>
</defs>
</svg>
