<svg width="256" height="76" viewBox="0 0 256 76" fill="none" xmlns="http://www.w3.org/2000/svg">
<g clip-path="url(#clip0_1_725)">
<path d="M16.0362 62.3458L10.294 71.1294H9.90929L4.12551 62.3458V75.6706H2.96875V60.6743H4.33859L10.0809 69.4136L15.7567 60.6743H17.1708V75.6706H16.0362V62.3458Z" fill="white"/>
<path d="M37.7799 68.1934C37.7577 72.1342 35.2533 75.9254 30.2194 75.9254C25.1856 75.9254 22.6562 72.112 22.6562 68.1492C22.6562 64.1863 25.1635 60.4365 30.2194 60.4365C35.2754 60.4365 37.802 64.142 37.7799 68.1907V68.1934ZM23.7909 68.1713C23.813 71.5558 25.9549 74.8545 30.2167 74.8545C34.4784 74.8545 36.6646 71.5558 36.6646 68.1713C36.6646 64.7868 34.5227 61.5103 30.2167 61.5103C25.9107 61.5103 23.7687 64.6374 23.7909 68.1713Z" fill="white"/>
<path d="M55.1086 60.6743L48.9402 75.7121H47.6976L41.5292 60.6743H42.7717L48.3203 74.3838L53.8688 60.6743H55.1114H55.1086Z" fill="white"/>
<path d="M59.9512 75.6682V60.6719H61.0858V75.6682H59.9512Z" fill="white"/>
<path d="M67.7277 60.6743L77.8175 73.0776V60.6743H78.9521V75.6706H78.5011L68.3891 63.2895V75.6706H67.2324V60.6743H67.725H67.7277Z" fill="white"/>
<path d="M96.9267 63.4362C95.6205 62.1521 93.7996 61.5073 92.106 61.5073C87.7142 61.5073 85.4643 64.7202 85.4865 68.1905C85.4865 71.7244 87.7363 74.7657 92.106 74.7657C93.7138 74.7657 95.3825 74.2095 96.6694 73.0306V68.8325H91.4418V67.8252H97.7597V73.4374C96.1961 75.001 94.3309 75.8589 92.1032 75.8589C87.0057 75.8589 84.3712 72.3028 84.3712 68.2126C84.3491 63.522 87.5426 60.4585 92.1032 60.4585C94.0736 60.4585 96.0661 61.2085 97.5881 62.7084L96.9239 63.4362H96.9267Z" fill="white"/>
<path d="M122.097 64.2944C122.097 61.9366 120.253 61.5298 118.261 61.5298C115.391 61.5298 114.019 62.8581 114.041 64.549C114.063 66.8403 116.504 67.5488 118.302 67.5488H124.665V68.4703H123.295V71.7469C123.295 73.3547 123.66 74.7882 125.157 74.7688V75.6682C123.937 75.8398 122.971 75.0262 122.65 73.7615C121.557 75.5381 119.844 75.8619 118.236 75.8619C114.594 75.8619 112.688 74.2541 112.688 71.686C112.688 69.8208 114.21 68.5146 115.709 68.022C114.146 67.5515 112.945 66.2453 112.945 64.5739C112.945 62.2604 114.852 60.5889 118.278 60.5889C120.677 60.5889 123.098 61.2088 123.098 64.2944H122.091H122.097ZM122.354 68.4703H118.242C115.286 68.4703 113.786 70.1418 113.786 71.6832C113.786 73.6121 115.2 74.8546 118.219 74.8546C119.932 74.8546 122.354 74.2541 122.354 71.7496V68.4731V68.4703Z" fill="#F19C23" stroke="#F19C23" stroke-miterlimit="10"/>
<path d="M149.129 63.5662C148.036 61.809 146.279 61.5516 144.588 61.5322C142.83 61.5322 140.046 62.1743 140.046 64.5736C140.046 66.4803 142.103 66.9313 144.632 67.4018C147.524 67.958 150.524 68.4728 150.524 71.7078C150.502 75.0923 147.095 75.9059 144.59 75.9059C142.255 75.9059 139.598 74.9429 138.441 72.6487L139.471 72.134C140.392 73.9549 142.747 74.8543 144.59 74.8543C146.434 74.8543 149.367 74.3396 149.367 71.6829C149.389 69.433 146.904 68.9405 144.441 68.47C141.699 67.9331 138.892 67.3769 138.892 64.6151C138.829 61.4437 142.128 60.4585 144.59 60.4585C146.732 60.4585 148.598 60.8016 150.075 63.0072L149.132 63.5635L149.129 63.5662Z" fill="white"/>
<path d="M160.055 61.7233H154.637V60.6938H166.633V61.7233H161.215V75.668H160.058V61.7233H160.055Z" fill="white"/>
<path d="M186.126 68.1934C186.104 72.1342 183.6 75.9254 178.563 75.9254C173.527 75.9254 171 72.112 171 68.1492C171 64.1863 173.507 60.4365 178.563 60.4365C183.619 60.4365 186.146 64.142 186.126 68.1907V68.1934ZM172.137 68.1713C172.16 71.5558 174.302 74.8545 178.563 74.8545C182.825 74.8545 185.011 71.5558 185.011 68.1713C185.011 64.7868 182.869 61.5103 178.563 61.5103C174.257 61.5103 172.115 64.6374 172.137 68.1713Z" fill="white"/>
<path d="M203.671 75.6682H202.149L196.966 69.9923H192.876V75.6682H191.719V60.6719H198.316C201.573 60.6719 203.223 63.0075 203.242 65.3432C203.264 67.784 201.656 69.9287 198.38 69.9287L203.671 75.671V75.6682ZM192.876 68.8992H198.189C200.801 68.8992 201.958 67.4215 201.98 65.321C202.002 63.5638 200.801 61.7428 198.316 61.7428H192.876V68.8965V68.8992Z" fill="white"/>
<path d="M220.359 75.6682L218.71 71.9848H209.755L208.127 75.6682H206.885L213.612 60.6719H214.877L221.604 75.6682H220.362H220.359ZM218.259 70.9139L214.232 61.7871L210.206 70.9139H218.261H218.259Z" fill="white"/>
<path d="M237.475 63.4362C236.169 62.1521 234.348 61.5073 232.654 61.5073C228.262 61.5073 226.012 64.7202 226.035 68.1905C226.035 71.7244 228.284 74.7657 232.654 74.7657C234.262 74.7657 235.931 74.2095 237.217 73.0306V68.8325H231.99V67.8252H238.311V73.4374C236.747 75.001 234.882 75.8589 232.654 75.8589C227.557 75.8589 224.922 72.3028 224.922 68.2126C224.9 63.522 228.093 60.4585 232.654 60.4585C234.624 60.4585 236.617 61.2085 238.139 62.7084L237.475 63.4362Z" fill="white"/>
<path d="M245.399 67.593H254.183V68.6419H245.399V74.5529H254.866V75.6682H244.262V60.6719H254.609V61.765H245.396V67.593H245.399Z" fill="white"/>
<path d="M25.0639 50.128C38.9063 50.128 50.1278 38.9064 50.1278 25.064C50.1278 11.2215 38.9063 0 25.0639 0C11.2214 0 -0.00012207 11.2215 -0.00012207 25.064C-0.00012207 38.9064 11.2214 50.128 25.0639 50.128Z" fill="#F19C22"/>
<path d="M27.7175 49.7248C40.1549 48.2594 49.0495 36.9889 47.584 24.5514C46.1185 12.114 34.848 3.21946 22.4106 4.68492C9.97316 6.15039 1.07862 17.4209 2.54408 29.8583C4.00955 42.2958 15.2801 51.1903 27.7175 49.7248Z" fill="white"/>
<path d="M40.0844 35.7101C40.1591 35.9868 39.9959 36.2691 39.7191 36.3438L33.3265 38.0762C33.0498 38.1509 32.7675 37.9876 32.6928 37.7109L31.774 34.3181C31.6993 34.0414 31.8626 33.7591 32.1393 33.6816L38.5319 31.9493C38.8087 31.8745 39.0937 32.0378 39.1656 32.3146L40.0844 35.7073V35.7101Z" fill="#F19C22"/>
<path d="M38.7035 30.9391C38.7782 31.2158 38.6149 31.5009 38.341 31.5728L31.9484 33.3052C31.6716 33.3799 31.3866 33.2166 31.3119 32.9399L30.3931 29.5471C30.3184 29.2704 30.4817 28.9881 30.7584 28.9106L37.151 27.1783C37.4277 27.1035 37.7128 27.2668 37.7875 27.5436L38.7063 30.9363L38.7035 30.9391Z" fill="#F19C22"/>
<path d="M37.2621 26.2321C37.3368 26.5088 37.1735 26.7938 36.8968 26.8658L30.507 28.5982C30.2302 28.6729 29.9452 28.5096 29.8705 28.2329L28.9517 24.8401C28.877 24.5634 29.0403 24.2783 29.317 24.2036L35.7096 22.4712C35.9863 22.3965 36.2686 22.5598 36.3461 22.8365L37.2648 26.2293L37.2621 26.2321Z" fill="#F19C22"/>
<path d="M22.7892 14.0557C22.7892 15.4616 21.6491 16.6017 20.2432 16.6017C18.8374 16.6017 17.6973 15.4616 17.6973 14.0557C17.6973 12.6499 18.8374 11.5098 20.2432 11.5098C21.6491 11.5098 22.7892 12.6499 22.7892 14.0557Z" fill="#F19C22"/>
<path d="M24.4374 12.5972H22.9652V12.4256C22.9652 11.3629 22.1045 10.4995 21.0391 10.4995H19.6194C18.5568 10.4995 17.6934 11.3602 17.6934 12.4256V13.3831H24.4346C24.6533 13.3831 24.8276 13.206 24.8276 12.9901C24.8276 12.7743 24.6505 12.5972 24.4346 12.5972H24.4374Z" fill="#F19C22"/>
<path d="M25.7605 24.6378L23.3529 22.958L21.8779 19.6427C21.3245 18.7405 20.3171 18.1289 19.8356 18.0238C19.6751 17.9601 19.5035 17.8993 19.3154 17.8522C17.8653 17.4759 16.3847 18.3476 16.0084 19.7977L13.8056 27.7898C13.7004 28.1911 13.6949 28.5951 13.7696 28.977V34.3955L11.3066 39.9191C10.969 40.6802 11.3066 41.5685 12.0677 41.9089C12.2669 41.9974 12.4745 42.0417 12.6792 42.0417C13.2548 42.0417 13.8056 41.7096 14.0546 41.1478L16.6476 35.3309C16.7334 35.1371 16.7777 34.9296 16.7777 34.7165V31.1604C16.9327 31.1411 17.0849 31.1051 17.2343 31.0581L19.2462 34.1049L19.8799 40.6774C19.9546 41.4578 20.6105 42.0389 21.377 42.0389C21.4269 42.0389 21.4739 42.0389 21.5237 42.0334C22.3512 41.9531 22.9572 41.217 22.8797 40.3896L22.21 33.4435C22.1851 33.1972 22.1021 32.962 21.9665 32.7572L19.2102 28.584L20.5911 23.5751L20.9592 24.386C21.0505 24.5907 21.1889 24.7706 21.3632 24.909L24.0365 26.8019C24.2911 27.0039 24.5927 27.1007 24.8944 27.1007C25.3012 27.1007 25.7052 26.9209 25.9764 26.5777C26.4496 25.9799 26.35 25.111 25.7522 24.6378H25.7605Z" fill="#F19C22"/>
<path d="M31.7238 37.5698C31.7819 37.5698 31.84 37.5726 31.8981 37.5781L28.4279 26.0272C28.3448 25.7477 28.1069 25.5429 27.8218 25.4986L25.3727 25.1222C24.9631 25.0586 24.5757 25.3409 24.5148 25.7532C24.4512 26.1655 24.7334 26.5502 25.1458 26.6111L27.1244 26.9155L30.4591 38.0126C30.8078 37.7359 31.2478 37.5698 31.7266 37.5698H31.7238Z" fill="#F19C22"/>
<path d="M42.3878 36.9335C42.2854 36.5295 41.8758 36.2859 41.4746 36.3856L33.3828 38.4196C33.6263 38.7544 33.7702 39.1668 33.7702 39.6123C33.7702 39.7036 33.7619 39.7922 33.7509 39.8807L41.8426 37.8467C42.2467 37.7443 42.4902 37.3348 42.3906 36.9335H42.3878Z" fill="#F19C22"/>
<path d="M31.7245 42.161C30.3187 42.161 29.1758 41.018 29.1758 39.6122C29.1758 38.2064 30.3187 37.0635 31.7245 37.0635C33.1303 37.0635 34.2733 38.2064 34.2733 39.6122C34.2733 41.018 33.1303 42.161 31.7245 42.161ZM31.7245 38.3116C31.0078 38.3116 30.4239 38.8955 30.4239 39.6122C30.4239 40.329 31.0078 40.9129 31.7245 40.9129C32.4413 40.9129 33.0252 40.329 33.0252 39.6122C33.0252 38.8955 32.4413 38.3116 31.7245 38.3116Z" fill="#F19C22"/>
<path d="M74.1077 10.5575L79.7891 23.5862H89.7323L79.2135 0.132812H69.002L58.4805 23.5862H68.4236L74.1077 10.5575Z" fill="white"/>
<path d="M83.3272 31.689H64.8883L67.2986 26.1709H57.3223L46.7344 49.7737H56.8767L61.1302 40.4117H87.0852L91.2695 49.7737H101.481L90.8931 26.1709H80.9196L83.3272 31.689Z" fill="white"/>
<path d="M130.201 35.3779H132.047L138.951 26.1709H123.47L130.201 35.3779Z" fill="white"/>
<path d="M114.389 26.1709H105.027V49.8457H114.389V26.1709Z" fill="white"/>
<path d="M114.389 13.748L121.582 23.586H140.892L148.215 13.82V23.586H157.577V0.20459H146.867L131.337 21.5492L115.806 0.20459H105.027V23.586H114.389V13.748Z" fill="white"/>
<path d="M157.577 26.1709H148.215V49.8457H157.577V26.1709Z" fill="white"/>
<path d="M166.227 49.7737H203.387V40.5556H175.517V29.3506H202.393V26.1709H166.227V49.7737Z" fill="white"/>
<path d="M202.393 20.6279H175.517V9.20975H203.387V0.132812H166.227V23.5862H202.393V20.6279Z" fill="white"/>
<path d="M238.826 26.1709H224.895L208.703 49.4887V49.7737H219.2L231.894 31.1217L244.587 49.7737H255.081V49.4887L238.826 26.1709Z" fill="white"/>
<path d="M254.584 0.558986V0.132812H244.3L231.892 18.6409L219.48 0.132812H209.199V0.558986L225.181 23.5862H238.533L254.584 0.558986Z" fill="white"/>
<path d="M255.272 53.7422H2.51562V55.3583H255.272V53.7422Z" fill="#F19C22"/>
</g>
<defs>
<clipPath id="clip0_1_725">
<rect width="255.272" height="76" fill="white"/>
</clipPath>
</defs>
</svg>
