<svg width="70" height="70" viewBox="0 0 70 70" fill="none" xmlns="http://www.w3.org/2000/svg">
<path d="M0.00136941 32.5478C0.0849033 32.1506 0.125985 31.7357 0.264296 31.3578C0.472446 30.7853 0.616233 30.0965 1.02569 29.7117C1.80077 28.9846 1.80077 28.2602 1.59125 27.318C1.44472 26.658 1.61453 25.9226 1.66931 25.2228C1.72819 24.4847 1.89252 23.748 1.88157 23.0126C1.83911 20.0232 2.90588 17.5048 5.00244 15.4055C5.47215 14.9345 6.05141 14.9071 6.46771 15.2782C6.92509 15.6863 6.93468 16.2464 6.49099 16.7955C6.41978 16.8845 6.33762 16.9639 6.25819 17.0461C5.40368 17.9239 4.77649 18.9372 4.37526 20.0985C3.9658 21.2844 3.88364 22.4922 3.98224 23.7343C4.0151 24.1478 3.99593 24.6011 3.86173 24.9886C3.11951 27.1427 3.75355 28.8805 5.82546 30.0787C6.00074 29.8829 6.23354 29.6967 6.37185 29.457C8.1959 26.2964 11.173 25.3228 14.5568 25.1667C16.259 25.0886 17.9748 25.2269 19.6318 24.6737C20.7246 24.3094 21.649 23.737 22.2597 22.7305C22.535 22.2772 22.8718 21.928 23.4662 22.0184C24.029 22.1033 24.2371 22.5278 24.385 23.0016C24.7726 24.2519 25.4669 25.294 26.4597 26.1499C27.4689 27.0208 28.0783 28.1533 28.5467 29.3844C28.9246 30.3745 29.2546 30.4457 30.0968 29.8035C32.1003 28.2739 32.5234 26.6402 31.5785 24.2998C31.4252 23.9178 31.4347 23.4576 31.4265 23.0318C31.3937 21.3282 31.1718 19.674 30.2666 18.1813C29.2588 16.5189 27.7319 15.626 25.8804 15.1988C25.5805 15.1289 25.2354 15.0372 25.0259 14.8359C23.3018 13.1844 21.1656 12.6681 18.8855 12.6092C16.0234 12.5353 13.2874 13.1748 10.6389 14.2306C10.365 14.3401 10.0912 14.4538 9.80907 14.5414C9.23528 14.7195 8.69984 14.4921 8.50402 14.0005C8.30135 13.4938 8.4958 12.9338 9.04494 12.6886C9.8118 12.3463 10.5951 12.0313 11.3935 11.7711C14.0967 10.8879 16.8643 10.399 19.714 10.5784C19.8811 9.61431 19.9797 8.66531 20.2166 7.75192C21.3463 3.40131 25.3135 0.180463 29.8134 0.0503696C32.9315 -0.0400113 36.0551 0.0188732 39.176 0.021612C39.9292 0.021612 40.3729 0.422848 40.3729 1.04045C40.3729 1.65942 39.9305 2.06066 39.1787 2.0634C36.24 2.07298 33.3012 2.05107 30.3625 2.07161C26.3255 2.10174 23.028 4.71594 22.1036 8.62834C21.9324 9.35001 21.9064 10.1073 21.8119 10.8605C22.6034 11.1672 23.3635 11.3617 24.0208 11.7369C25.5312 12.5996 27.0978 13.3268 28.6726 14.0621C31.6073 15.4329 32.9274 18.0293 33.3464 21.1433C33.3834 21.4145 33.4354 21.687 33.4286 21.9581C33.4067 22.9003 33.5792 23.789 33.9038 24.6833C34.3708 25.9719 34.2776 26.7073 33.6874 28.5916C36.1414 30.925 36.0825 33.709 35.0322 36.5862C34.4721 38.1213 33.4601 39.325 31.1335 39.2058C30.9801 39.9686 30.824 40.7396 30.6446 41.6283C30.9363 41.6283 31.1965 41.6283 31.4567 41.6283C34.9884 41.6283 38.5187 41.6283 42.0504 41.6283C43.3007 41.6283 43.5567 41.8447 43.7334 43.084C43.9648 44.7095 43.8758 46.2966 43.0391 47.803C44.8111 47.5127 46.1531 46.1104 46.4777 44.2453C46.5516 43.8207 46.59 43.388 46.6105 42.9566C46.6598 41.983 46.9748 41.6393 47.9484 41.6324C50.0217 41.6187 52.095 41.6324 54.1683 41.6269C56.0813 41.6228 57.9985 41.6749 59.9075 41.5886C64.4525 41.3818 67.9062 37.7693 67.939 33.2051C67.9705 28.7641 67.9459 24.3217 67.9473 19.8808C67.9473 16.9653 67.8528 14.0457 67.9678 11.1344C68.1746 5.91691 64.0951 1.90455 58.9105 2.04012C54.0382 2.16747 49.1604 2.06751 44.2853 2.06614C44.0579 2.06614 43.8238 2.0812 43.6047 2.03738C43.072 1.93057 42.7543 1.59369 42.7556 1.04045C42.7556 0.487211 43.0761 0.157183 43.6074 0.044892C43.7827 0.00791796 43.9703 0.0175038 44.1524 0.0175038C49.2329 0.0175038 54.3134 -0.000298485 59.3926 0.021612C64.5114 0.0435225 68.6826 3.3972 69.7521 8.34761C69.9233 9.14186 69.9849 9.97309 69.9863 10.7865C70.0041 18.1663 70.0027 25.546 69.9945 32.9257C69.989 38.4212 66.4163 42.6513 61.0112 43.5551C60.3416 43.6674 59.65 43.6715 58.9681 43.6742C55.7335 43.6852 52.4976 43.6838 49.2631 43.6742C48.855 43.6742 48.6044 43.7098 48.5318 44.2206C48.0895 47.2922 46.2408 49.2984 43.2089 49.9571C42.2585 50.1638 41.2739 50.2364 40.3003 50.3076C39.5074 50.3665 38.9994 49.9831 38.8624 49.3422C38.7378 48.7602 39.0706 48.1905 39.7183 47.8728C41.3369 47.0799 41.9422 45.9967 41.7998 44.2165C41.7683 43.8207 41.6396 43.6701 41.2219 43.6715C37.5546 43.6838 33.886 43.6701 30.2187 43.692C30.0092 43.692 29.7107 43.8851 29.6066 44.0727C28.0208 46.9279 25.7339 48.9766 22.7075 50.2159C22.5199 50.2926 22.3159 50.5829 22.3022 50.7855C22.2036 52.2371 22.2186 52.2371 23.5894 52.7C23.9345 52.8164 24.2851 52.9163 24.6233 53.0505C26.7336 53.8886 28.7699 54.8636 30.4885 56.385C30.9801 56.8205 31.4224 57.319 31.8497 57.8202C32.2742 58.3187 32.2454 58.902 31.8346 59.2923C31.3978 59.7059 30.8062 59.6881 30.331 59.1554C29.4313 58.1461 28.4919 57.1971 27.269 56.5754C27.1334 56.5069 26.991 56.4508 26.7705 56.3522C26.7705 57.6298 26.7377 58.8322 26.7815 60.0304C26.8103 60.8206 26.5624 61.4341 25.8585 61.7805C24.9109 62.2461 24.5809 62.9733 24.7507 63.9866C24.9013 64.8863 24.4973 65.4848 23.7469 65.9682C22.8595 66.5392 22.0297 67.202 21.0464 67.9168H32.7768C32.8891 66.3297 32.7644 64.7809 32.3509 63.2581C32.0592 62.1859 32.2276 61.634 32.9151 61.4382C33.5751 61.2505 34.0147 61.6696 34.3269 62.7295C34.9281 64.7727 34.9103 66.8706 34.8281 68.9617C34.8144 69.315 34.4064 69.6532 34.1804 69.9983H1.50498C0.979126 69.6573 0.783301 69.1794 0.812059 68.5522C0.851771 67.6895 0.792887 66.8199 0.842185 65.9586C1.04623 62.4269 2.25952 59.3169 4.75595 56.752C6.32529 55.1389 8.35065 54.2597 10.3253 53.3162C11.1388 52.9273 12.0412 52.7219 12.9012 52.4275C13.0491 52.3768 13.3038 52.3124 13.312 52.2344C13.3668 51.6743 13.4188 51.1046 13.3599 50.55C13.3421 50.3857 12.9847 50.2186 12.7547 50.12C9.37496 48.6698 6.92509 46.2733 5.53377 42.8704C5.05722 41.7064 4.80799 40.4493 4.45057 39.2154C2.4129 39.136 1.27629 38.3595 0.587476 36.478C0.34783 35.822 0.193086 35.1346 0 34.4608C0 33.8227 0 33.1845 0 32.5478H0.00136941ZM22.8581 25.1995C21.6681 26.2403 20.1385 26.862 18.461 27.04C17.197 27.1742 15.9153 27.1386 14.6431 27.2098C11.9221 27.3632 9.46534 28.0082 8.03842 30.6731C7.80288 31.1126 7.30305 31.403 6.95933 31.7919C6.78815 31.9863 6.58548 32.2465 6.58137 32.4793C6.55261 34.3239 6.54577 36.1685 6.57452 38.0131C6.6608 43.7071 11.0908 48.4261 16.5808 49.0067C21.9845 49.5777 27.2978 46.0556 28.7137 40.8176C29.471 38.0172 28.9643 35.1551 29.1492 32.2944C27.7154 32.1137 27.0458 31.188 26.5542 30.0007C26.2625 29.2982 25.8818 28.6025 25.408 28.0109C24.6329 27.0455 23.7469 26.1663 22.8595 25.1982L22.8581 25.1995ZM2.91684 67.8894H14.6034C13.6078 67.1664 12.7451 66.4954 11.8358 65.8956C11.1538 65.4464 10.7937 64.8809 10.9361 64.0702C11.1319 62.965 10.717 62.2146 9.72964 61.712C9.09697 61.3902 8.87513 60.8233 8.90663 60.1208C8.93812 59.4169 8.91347 58.7103 8.91347 58.0051C8.91347 57.4751 8.91347 56.9465 8.91347 56.3755C5.01066 58.0215 2.45946 62.9746 2.91684 67.8894ZM13.3353 54.461C12.6848 54.6774 12.0932 54.902 11.4866 55.0663C11.0922 55.1731 10.9429 55.3525 10.9539 55.777C10.9826 57.0273 10.9826 58.2803 10.9539 59.5319C10.9443 59.9469 11.0634 60.2427 11.4263 60.4207C12.7149 61.0534 13.2148 62.079 12.9847 63.4841C12.9587 63.6388 12.9601 63.8059 12.9902 63.9606C13.0135 64.0811 13.071 64.229 13.1641 64.2989C14.12 65.0096 15.0868 65.708 16.2042 66.5214C15.2237 62.3981 14.2884 58.4707 13.3353 54.4638V54.461ZM22.3446 54.461C21.3929 58.4679 20.4589 62.3967 19.4826 66.5077C20.4644 65.797 21.2546 65.1849 22.0885 64.6371C22.5582 64.329 22.802 63.9811 22.702 63.4142C22.4638 62.0599 22.9595 61.0712 24.1961 60.4577C24.2769 60.4179 24.3672 60.3673 24.4124 60.2961C24.5261 60.1181 24.7 59.9263 24.7027 59.7374C24.7274 58.3721 24.7246 57.0068 24.7041 55.6415C24.7014 55.4799 24.5768 55.2252 24.4467 55.1745C23.7756 54.9143 23.0841 54.7062 22.3432 54.461H22.3446ZM19.9742 55.5497H15.703C16.4014 58.4885 17.0929 61.3916 17.7831 64.2947C17.8215 64.2947 17.8584 64.2947 17.8968 64.2961C18.5856 61.3943 19.2758 58.4926 19.9755 55.5497H19.9742ZM32.6152 30.2718C32.1948 30.6731 31.9387 30.8976 31.7059 31.1455C31.5128 31.3509 31.1992 31.5782 31.1937 31.8014C31.1513 33.542 31.1704 35.2852 31.1704 37.0093C32.1153 37.212 32.6535 36.9422 33.0643 36.0247C33.6682 34.6745 33.8271 33.2612 33.404 31.8357C33.2519 31.3208 32.9178 30.8579 32.6138 30.2718H32.6152ZM4.51083 37.2421C4.51083 35.3414 4.5163 33.7077 4.50261 32.074C4.50261 31.9137 4.43551 31.7029 4.32185 31.6029C3.90281 31.2359 3.45228 30.9072 3.02365 30.5717C1.59673 31.6056 1.83227 35.7043 3.19483 36.7861C3.50568 37.0326 3.98224 37.0682 4.50946 37.2421H4.51083ZM20.2056 51.0512H15.4866V53.4244H20.2056V51.0512Z" fill="#1F1F1F"/>
</svg>
