<svg width="30" height="30" viewBox="0 0 30 30" fill="none" xmlns="http://www.w3.org/2000/svg">
<path d="M29.9474 9.74623C29.1331 9.89078 28.3203 10.0369 27.4032 10.2008C27.4032 10.4015 27.4032 10.6858 27.4032 10.9717C27.4032 16.1356 27.4032 21.301 27.4032 26.4648C27.4032 27.4703 27.3807 27.4912 26.3656 27.4912C24.2085 27.4928 22.0531 27.5104 19.8976 27.4783C19.3419 27.4703 18.9226 27.6068 18.5854 28.0405C18.4553 28.2075 18.2882 28.344 18.1372 28.495C17.4005 29.2317 16.5627 29.3313 15.6236 28.7938C14.7482 29.6161 13.7379 30.1542 12.4755 29.9598C11.2628 29.7735 10.3297 29.1503 9.8205 28.026C9.61491 27.5731 9.35631 27.4783 8.91301 27.4831C7.02255 27.5024 5.13209 27.4863 3.24324 27.4944C2.78709 27.496 2.45782 27.406 2.45782 26.8503C2.46264 23.4452 2.46104 20.0386 2.46104 16.5692H3.42152V26.4616H9.21818C9.64382 25.5413 10.0582 24.6466 10.532 23.6219C9.28564 22.5763 10.3152 21.8069 11.189 21.0761C8.56447 18.4661 6.00103 15.9155 3.25448 13.1834C2.86258 13.6476 2.41928 14.1712 1.97437 14.6948C1.61619 15.1156 1.29817 15.0642 0.906266 14.69C-0.290329 13.5512 -0.301572 13.5641 0.885386 12.3755C1.92725 11.3337 2.96109 11.3251 3.9869 12.3498C5.62358 13.9865 7.25866 15.6232 8.93871 17.3049C10.3778 15.8641 11.7848 14.4555 13.1934 13.0485C13.8873 12.3562 13.9676 12.3562 14.6583 13.0469C15.8822 14.2692 17.1029 15.4963 18.3701 16.7668C18.8953 16.309 19.2535 16.6238 19.6374 17.0157C21.0332 18.4388 22.4498 19.841 23.8921 21.2865C24.2953 20.9091 24.6567 20.5686 25.0598 20.1911C25.2815 20.3983 25.4887 20.5895 25.7087 20.7951C23.8504 22.6245 22.0209 24.425 20.1915 26.2239L20.3296 26.4375H26.4218C26.4218 26.1548 26.4218 25.8481 26.4218 25.5413C26.4218 20.4562 26.4218 15.3726 26.4218 10.2875C26.4218 9.48228 26.8266 9.06093 27.6361 9.02345C27.7405 9.01863 27.8433 8.99454 27.8048 8.99936C25.328 6.52425 22.8015 4.00096 20.3216 1.52265C17.967 3.87568 15.4517 6.39094 12.914 8.92869C13.3155 9.29971 14.284 8.60906 14.4173 9.56312C14.5009 10.1606 14.4334 10.7806 14.4334 11.4713C14.1266 11.4873 13.852 11.5034 13.4858 11.5226C13.4617 11.044 13.4408 10.6055 13.4151 10.0851C13.1099 10.0691 12.8288 10.0434 12.5494 10.0434C9.03508 10.0402 5.52079 10.0498 2.0081 10.0273C1.67883 10.0257 1.34957 9.82332 1.0203 9.7125C1.1761 9.40251 1.26605 9.03148 1.49573 8.79216C2.67787 7.56505 3.86161 6.33633 5.11443 5.1831C5.7585 4.59043 6.03315 3.97205 5.97694 3.10151C5.90948 2.07838 5.98497 1.99325 6.96473 2.06874C7.869 2.13781 8.54681 1.88885 9.11057 1.17571C9.44947 0.740443 9.89598 0.388693 10.2959 0C13.7572 0 17.2201 0 20.6814 0C20.8484 0.197559 21.0026 0.407967 21.1841 0.589464C23.4745 2.88468 25.7649 5.17989 28.0617 7.46707C28.6769 8.07902 29.3178 8.66688 29.9474 9.26598V9.74462V9.74623ZM9.76267 2.05268C10.3297 2.05268 10.8019 2.01413 11.266 2.06874C11.4861 2.09444 11.8668 2.30003 11.8635 2.41889C11.8459 3.48378 12.1864 4.52939 11.2211 5.53004C10.1128 6.68005 8.9869 7.30646 7.3984 7.03662C7.0097 6.97077 6.52946 7.10729 6.23874 6.92098C5.99139 6.76357 5.95445 6.2753 5.87414 6.0665C4.91687 6.99486 3.91944 7.96338 2.89791 8.95439C2.98625 8.97687 3.07941 9.02024 3.17417 9.02024C5.72638 9.02506 8.28018 9.03951 10.8324 9.00418C11.1247 9.00097 11.4716 8.77128 11.6965 8.54963C14.0222 6.2512 16.3303 3.9319 18.64 1.61741C18.7781 1.47928 18.8889 1.31545 19.1106 1.0408C18.6737 1.0408 18.3862 1.0408 18.1003 1.0408C15.9464 1.0408 13.7909 1.07613 11.6387 1.02313C10.8372 1.00385 10.2461 1.20623 9.76267 2.05429V2.05268ZM13.9291 13.9014C12.5703 15.2618 11.1713 16.6624 9.81728 18.0164C11.0075 19.2082 12.2394 20.4417 13.4135 21.6174C14.7803 20.2538 16.1841 18.8532 17.5349 17.5056C16.3447 16.3155 15.108 15.0803 13.9291 13.9014ZM14.3627 22.4462C15.7344 23.8211 17.1302 25.22 18.3878 26.4793C19.9056 24.9968 21.4877 23.4517 22.9863 21.9884C21.6371 20.636 20.2542 19.2499 18.9002 17.8943C18.5436 18.2525 18.142 18.6556 17.6779 19.123C17.9525 19.3784 18.2561 19.6354 18.5307 19.9197C20.3634 21.8085 20.4067 21.1741 18.4553 23.1899C18.0746 23.5834 17.7501 23.5705 17.3839 23.1722C16.7752 22.5104 16.1456 21.8696 15.5368 21.2335C15.0727 21.7138 14.6888 22.1105 14.3627 22.4462ZM10.4501 26.4809C10.4405 27.8622 11.515 28.9624 12.8947 28.9849C14.2712 29.0074 15.3939 27.928 15.418 26.5596C15.4437 25.1606 14.3146 23.9961 12.9332 23.9978C11.5809 23.9978 10.4598 25.1205 10.4501 26.4809ZM6.98561 3.05975V6.00064H8.86804V3.05975H6.98561ZM17.967 22.2872C18.2336 21.9788 18.4536 21.7218 18.5709 21.5853C17.9734 20.9075 17.4675 20.3357 16.976 19.78C16.6692 20.0273 16.4074 20.2393 16.1231 20.4674C16.7591 21.0954 17.3197 21.6495 17.967 22.2872ZM10.0068 3.06939V5.13974C11.0524 4.35432 11.1102 4.20013 10.8163 3.06939H10.0068ZM17.6538 27.7289C17.1767 27.2037 16.8346 26.8262 16.4925 26.4488C16.7704 27.0109 15.6589 27.7 16.5985 28.1465C16.8378 28.2605 17.3165 27.8734 17.6538 27.7289ZM11.099 22.5313C11.5584 23.8387 12.4145 22.7369 13.0136 23.0051C12.6217 22.5988 12.2522 22.2165 11.8523 21.8021C11.6114 22.0366 11.3464 22.292 11.099 22.5313ZM2.70517 12.5233C2.65217 12.4735 2.59917 12.4253 2.54456 12.3755C2.11089 12.7739 1.67723 13.1722 1.24356 13.5705C1.30299 13.6315 1.36402 13.6942 1.42345 13.7552C1.85069 13.344 2.27793 12.9329 2.70517 12.5217V12.5233Z" fill="#1F1F1F"/>
</svg>
