<svg width="70" height="70" viewBox="0 0 70 70" fill="none" xmlns="http://www.w3.org/2000/svg">
<g clip-path="url(#clip0_1_237)">
<path d="M63.8063 25.888V23.5451L69.7668 22.4922V21.6159C69.6427 21.5107 69.5149 21.4091 69.3908 21.3076C69.0711 21.0481 68.7402 20.7811 68.4431 20.484C66.6907 18.7353 64.942 16.9791 63.1895 15.2267C58.6279 10.6575 53.9121 5.9342 49.2226 1.33874C48.5232 0.654308 47.2897 0.142865 46.2894 0.124062C43.4388 0.071413 40.5356 0.0789342 37.7264 0.0864554C34.3381 0.0977372 30.8408 0.105258 27.396 0.00748259C24.5305 -0.0790114 22.7404 0.676871 21.4054 2.51957C20.0967 4.32842 18.4119 5.07302 16.1067 4.85491C15.0462 4.75713 14.4595 4.75337 14.2001 5.00909C13.9293 5.27234 13.918 5.88156 13.997 7.06615C14.1324 9.1232 13.5119 10.6274 11.9174 12.0941C8.97282 14.8055 6.1674 17.72 3.45224 20.5404C3.11002 20.8977 2.90695 21.3941 2.6926 21.9206C2.62115 22.0973 2.54593 22.2816 2.4632 22.4583C2.64747 22.526 2.83174 22.605 3.00849 22.6802C3.53121 22.9021 4.02761 23.1089 4.51649 23.1127C10.4808 23.1503 16.5467 23.1503 22.4095 23.1503C24.6734 23.1503 26.941 23.1503 29.2049 23.1503C29.6524 23.1503 30.0962 23.1804 30.5625 23.2104C30.7806 23.2255 31.0062 23.2405 31.2356 23.2518L31.4049 23.2593L31.5703 26.61L33.4243 26.5047C33.4243 26.0497 33.4431 25.606 33.4544 25.1735C33.4882 24.1431 33.5183 23.1691 33.3867 22.2289C33.2288 21.1045 32.6007 21.097 31.5891 21.1722C30.9799 21.2173 30.3519 21.2662 29.9307 20.8638L29.7916 20.7322L47.3912 3.12879L64.9683 20.7021H64.9871L65.0811 20.7886L65.1488 20.8789L65.0999 20.9804C65.0698 21.0443 65.036 21.1158 64.5358 21.1383C63.1745 21.1985 62.4901 21.2286 62.1892 21.5445C61.8884 21.8641 61.8884 22.5937 61.8884 23.925V62.0124H46.8835L59.8614 49.0609L58.5076 47.3686L55.7661 49.9484L53.16 47.331C50.5802 44.7399 48.1433 42.2918 45.635 39.8135C44.8904 39.0765 44.3602 38.7568 44.2436 38.7794C42.8033 39.539 42.0812 38.7004 41.4419 37.9633C41.2953 37.7941 41.1599 37.6361 41.0132 37.4932C39.43 35.9401 37.8355 34.3419 36.2974 32.7925C35.5754 32.0667 34.8533 31.3409 34.1275 30.6189C32.9994 29.4932 31.8549 29.5095 30.6941 30.6677C28.4603 32.9015 26.2265 35.1353 23.9739 37.3879L20.7473 40.6146L9.127 28.983C7.31063 27.1666 6.40056 26.2565 5.55442 26.2528C4.70828 26.2528 3.80198 27.1591 2.00064 28.9604C0.661867 30.3105 -0.00752148 30.9799 -2.64386e-07 31.5703C0.00752096 32.1532 0.67691 32.7812 2.00441 34.0372L2.09842 34.1237C2.56474 34.5637 2.96336 34.7668 3.31686 34.7442C3.64779 34.7254 3.97496 34.5111 4.3247 34.0899C5.05426 33.2137 5.77254 32.3299 6.43816 31.5176L7.34823 30.4045L7.4949 30.5512L26.234 49.2602L25.8805 49.561C24.6282 50.6215 23.3346 51.7159 23.3346 52.9343C23.3346 53.6263 23.7483 54.3107 24.5982 55.0252L24.7072 55.1192L21.5145 61.9823H7.60395V38.6703L5.91168 38.7455C5.89288 38.7982 5.87783 38.8471 5.85903 38.8922C5.8139 39.0238 5.78006 39.1178 5.78006 39.1968C5.7763 41.9383 5.7763 44.676 5.77254 47.4175C5.77254 52.4755 5.76878 57.5335 5.74997 62.5916C5.74997 63.1105 5.85527 63.4715 6.07715 63.6972C6.32911 63.9491 6.74277 64.0432 7.46105 64.0507C12.6131 64.0168 16.8325 64.0206 20.7435 64.0695C21.2738 64.077 22.3606 64.3026 22.59 64.8254C23.6806 67.3262 25.6624 68.9733 28.8251 70.0037H31.3673L36.3952 67.4239L36.3726 67.3186L36.4704 67.2472C36.5381 67.1983 36.6321 67.1983 36.7449 67.2547C36.76 67.2547 36.7788 67.2622 36.7976 67.266L37.3015 67.3826L37.1247 67.4728C37.5271 67.7097 37.8618 67.9241 38.1439 68.1008C39.1718 68.7552 40.389 68.3027 41.7954 66.7433L42.0023 66.5139C43.7096 64.6223 45.5485 63.8664 48.1433 63.9792C50.7457 64.0958 53.3969 64.077 55.9616 64.0544C57.8683 64.0394 59.8388 64.0243 61.7793 64.0657C62.5766 64.0845 63.0918 63.9529 63.3926 63.6596C63.701 63.3587 63.8364 62.836 63.8326 61.9748C63.7912 52.8553 63.795 43.5817 63.7987 34.6164C63.7987 31.7057 63.7987 28.795 63.7987 25.8842L63.8063 25.888ZM16.0014 6.84051H20.815V14.0534H16.0014V6.84051ZM44.6986 2.36539C44.5256 2.5835 44.3827 2.77153 44.2586 2.94076C44.0292 3.24913 43.845 3.48981 43.6344 3.70416L41.8857 5.45661C37.0984 10.2627 32.1457 15.2304 27.2343 20.0741C26.7379 20.563 25.8429 21.0932 25.0457 21.1045C22.0297 21.1459 18.9798 21.1534 15.9563 21.1534C14.185 21.1534 12.4251 21.1534 10.6839 21.1459L7.48361 21.1383C7.2467 21.1383 7.00978 21.0895 6.86687 21.0594C6.82551 21.0519 6.79166 21.0443 6.7691 21.0406L6.40056 20.9842L13.7601 13.6058L13.8165 13.9744C14.0321 15.3859 15.0023 16.0916 16.7272 16.0916C20.7811 16.0916 24.1644 14.5673 26.8771 11.5187C27.4976 10.823 27.8887 5.95301 27.3735 5.3137C27.1441 5.03166 26.6289 4.85867 26.234 4.82859C25.4706 4.77594 24.711 4.78346 23.8347 4.79474C23.4662 4.7985 23.0789 4.80226 22.669 4.80226H22.323L22.5073 4.51269C23.5151 2.94452 24.5267 1.99308 26.4672 2.01565C30.7091 2.09086 34.9022 2.07958 39.336 2.06454C41.0508 2.06078 42.7845 2.05325 44.5482 2.05325H44.9355L44.6949 2.35786L44.6986 2.36539ZM23.0977 12.1731V6.81419H25.3916L25.4292 6.95333C26.0686 9.23226 25.3954 10.8869 23.3797 12.0189L23.1014 12.1768L23.0977 12.1731ZM3.12131 32.3713L2.82422 31.8298L5.671 28.3662L6.40432 29.1372L3.12131 32.3713ZM22.5561 42.1827L32.4428 32.2886L40.9944 40.7763L31.0438 50.708L22.5561 42.1827ZM39.4262 45.8192L43.5403 50.6403L41.6112 52.0242L37.497 47.6168L39.4262 45.8192ZM27.8661 50.7381L31.4161 54.4987L30.5098 54.0663C29.9157 53.7842 29.2989 53.9497 28.6408 54.1227C27.5991 54.4009 26.422 54.7131 25.6286 52.735L25.5759 52.6071L27.8661 50.7381ZM30.1037 67.9166C26.7567 67.9166 24.1206 65.2954 24.098 61.9523C24.0792 58.658 26.7267 55.924 30.0021 55.8525C31.6042 55.8225 33.1159 56.4317 34.278 57.5749C35.4475 58.7257 36.1131 60.3201 36.1056 61.9447C36.0868 65.2917 33.4506 67.9128 30.0999 67.9128L30.1037 67.9166ZM40.9568 65.0209C40.844 65.0773 40.671 65.1939 40.4867 65.318C40.0054 65.6414 39.4262 66.0288 38.9599 66.0288C38.8621 66.0288 38.7681 66.0099 38.6779 65.9723C37.1548 65.2954 37.5873 64.2613 37.9634 63.3512C38.1852 62.8172 38.4146 62.2681 38.268 61.7981L37.9671 60.8203L41.1674 64.9231L40.9568 65.0247V65.0209ZM33.1272 52.4153L36.4065 49.2113L36.5381 49.358C36.8991 49.7641 37.2789 50.1815 37.6625 50.6103C38.6102 51.6632 39.5879 52.75 40.5544 53.8707C40.9756 54.3596 41.363 54.6003 41.739 54.6115C42.1339 54.6115 42.5626 54.3784 43.0552 53.8632C43.6344 53.2615 44.1345 52.7651 44.5557 52.3439C45.6801 51.227 46.2442 50.6667 46.2442 50.1853C46.2442 49.7227 45.6839 49.1812 44.6723 48.1959C44.2661 47.8011 43.7585 47.3084 43.1831 46.718C42.713 46.2367 42.2129 45.7816 41.7277 45.3416C41.5059 45.1423 41.2877 44.943 41.0771 44.7475L40.9342 44.6158L44.0744 41.4193L54.0287 51.3849L43.0439 62.3772L33.1272 52.4116V52.4153Z" fill="#1F1F1F"/>
<path d="M47.6917 13.0042C45.2172 13.0042 42.8969 13.9518 41.1633 15.6667C39.4259 17.3853 38.4707 19.683 38.4707 22.1312C38.4707 24.5567 39.4334 26.8545 41.1821 28.6032C42.9345 30.3518 45.2436 31.3183 47.6842 31.3183H47.6992C52.6632 31.3108 56.736 27.2343 56.7774 22.2252C56.7962 19.7281 55.8635 17.4003 54.1412 15.6667C52.4376 13.9481 50.1512 13.0042 47.6955 13.0042H47.6917ZM40.5804 20.7849C41.419 17.6447 43.2279 15.8396 46.2777 15.1026L46.5109 15.0462V21.0218H40.5165L40.5804 20.7849ZM46.5222 29.0732L46.3041 29.0394C43.2467 28.5468 41.3137 26.6251 40.7158 23.4737L40.6744 23.2518H46.5222V29.077V29.0732ZM54.4871 23.4774C54.1712 26.3957 52.1668 28.4302 48.9854 29.062L48.7597 29.1071V23.2669H54.5097L54.4871 23.4737V23.4774ZM54.5849 20.9879H48.7635V15.2229L48.9778 15.253C51.9863 15.6817 53.9644 17.641 54.5435 20.766L54.5849 20.9879Z" fill="#1F1F1F"/>
<path d="M27.7646 64.2312C28.4152 64.8667 29.2801 65.2052 30.2015 65.1788C31.9878 65.1375 33.4393 63.6633 33.4356 61.8996C33.4356 60.1321 31.9765 58.6579 30.1902 58.6166C30.1639 58.6166 30.1375 58.6166 30.1112 58.6166C29.235 58.6166 28.4114 58.955 27.7759 59.5755C27.1328 60.2036 26.7793 61.0347 26.7831 61.9109C26.7831 62.7909 27.1328 63.6144 27.7683 64.2312H27.7646ZM29.2162 61.1588C29.4418 60.9369 29.8216 60.6661 30.13 60.6812C30.4271 60.6812 30.7881 60.9482 31.0025 61.1738C31.1341 61.3129 31.3597 61.5837 31.3522 61.8394C31.3447 62.2117 31.0814 62.5464 30.7505 62.9714C30.5926 63.1744 30.4158 63.4001 30.2391 63.6633L30.0774 63.904L29.9232 63.6596C29.754 63.3888 29.581 63.1556 29.4305 62.9488C29.1109 62.5126 28.8589 62.1666 28.8627 61.7943C28.8627 61.5423 29.0883 61.2866 29.2199 61.1588H29.2162Z" fill="#1F1F1F"/>
</g>
<defs>
<clipPath id="clip0_1_237">
<rect width="69.7668" height="70" fill="white"/>
</clipPath>
</defs>
</svg>
