<svg width="36" height="36" viewBox="0 0 36 36" fill="none" xmlns="http://www.w3.org/2000/svg">
<rect x="0.5" y="0.5" width="35" height="35" rx="17.5" fill="#1D3052" stroke="white"/>
<g clip-path="url(#clip0_1_700)">
<path d="M17.4361 25.9931C15.743 25.9931 14.0498 26.0069 12.3567 25.9907C10.6612 25.9746 10.0275 25.38 10.0182 23.7213C9.9951 20.2188 9.99278 16.7164 10.0182 13.2116C10.0321 11.6663 10.6612 11.0324 12.1994 11.0208C15.7407 10.9931 19.2819 10.9931 22.8232 11.0208C24.3498 11.0324 24.9743 11.6801 24.9835 13.2301C25.0043 16.7326 25.0043 20.235 24.9835 23.7398C24.9743 25.3476 24.3474 25.9676 22.7468 25.9884C20.9774 26.0116 19.2056 25.9931 17.4361 25.9954V25.9931ZM23.0128 24.0035V17.2415C22.2819 17.1791 22.0367 17.4798 22.1223 18.1738C22.268 19.3698 21.9673 20.4594 21.1994 21.4033C19.9226 22.9718 17.7831 23.5709 15.8979 22.8862C13.992 22.1945 12.8679 20.5427 12.8818 18.4514C12.8864 17.7451 12.598 17.361 12.0167 17.2994V24.0035H23.0128ZM17.487 21.3131C19.1431 21.3223 20.5124 20.0361 20.5101 18.4746C20.5078 16.9176 19.1084 15.5944 17.4847 15.6106C15.9003 15.6268 14.5633 16.8945 14.5194 18.419C14.4731 19.9736 15.8378 21.3038 17.487 21.3131ZM23.0128 14.2665C23.4153 13.0011 22.6612 12.9479 21.6643 12.9178C20.6304 12.8854 20.2441 13.1584 20.2626 14.2596C20.2811 15.3237 20.5171 15.7702 21.6805 15.7424C22.7561 15.717 23.339 15.4926 23.0128 14.2665Z" fill="white"/>
</g>
<defs>
<clipPath id="clip0_1_700">
<rect width="15" height="15" fill="white" transform="translate(10 11)"/>
</clipPath>
</defs>
</svg>
