<svg width="20" height="29" viewBox="0 0 20 29" fill="none" xmlns="http://www.w3.org/2000/svg">
<g clip-path="url(#clip0_1_797)">
<path d="M9.44912 0C9.82419 0 10.1993 0 10.5738 0C10.8603 0.038022 11.1468 0.073774 11.4333 0.114066C12.9911 0.333118 14.4181 0.898908 15.7029 1.80576C17.5162 3.08546 18.7943 4.78566 19.488 6.90411C20.0346 8.57311 20.1953 10.271 19.7136 11.9957C19.2579 13.6272 18.5952 15.1742 17.8349 16.6786C15.6787 20.9427 13.0611 24.9163 10.2805 28.7861C10.0763 29.0704 9.94771 29.0709 9.7441 28.7883C6.9573 24.9112 4.33519 20.9291 2.17614 16.6559C1.41585 15.1515 0.736772 13.6079 0.309248 11.969C0.163168 11.4077 0.100562 10.8244 -0.000396729 10.2512C-0.000396729 10.119 -0.000396729 9.98673 -0.000396729 9.85451C0.0650291 9.30461 0.0999981 8.7496 0.200393 8.20594C0.577155 6.16467 1.50891 4.40488 2.96463 2.94188C4.24946 1.65254 5.77343 0.755333 7.54783 0.331983C8.17276 0.1833 8.81461 0.108391 9.44912 0ZM10.0137 13.6624C11.9872 13.6607 13.5946 12.0428 13.5913 10.0611C13.5884 8.08053 11.9737 6.45693 10.0081 6.4592C8.04247 6.4609 6.42656 8.09017 6.42882 10.0667C6.43164 12.0501 8.04078 13.6647 10.0137 13.6629V13.6624Z" fill="#F39D22"/>
</g>
<defs>
<clipPath id="clip0_1_797">
<rect width="20" height="29" fill="white"/>
</clipPath>
</defs>
</svg>
