<svg width="237" height="71" viewBox="0 0 237 71" fill="none" xmlns="http://www.w3.org/2000/svg">
<g clip-path="url(#clip0_1_98)">
<path d="M14.888 58.0738L9.55673 66.2287H9.1996L3.82982 58.0738V70.4449H2.75586V56.522H4.02765L9.35889 64.6357L14.6285 56.522H15.9414V70.4449H14.888V58.0738Z" fill="#2D3F50" stroke="#2D3E50" stroke-miterlimit="10"/>
<path d="M35.0743 63.5025C35.0537 67.1611 32.7285 70.681 28.055 70.681C23.3815 70.681 21.0332 67.1405 21.0332 63.4613C21.0332 59.7821 23.361 56.3008 28.055 56.3008C32.7491 56.3008 35.0948 59.741 35.0743 63.4999V63.5025ZM22.0866 63.4819C22.1072 66.6241 24.0958 69.6867 28.0525 69.6867C32.0091 69.6867 34.0389 66.6241 34.0389 63.4819C34.0389 60.3397 32.0502 57.2977 28.0525 57.2977C24.0547 57.2977 22.0661 60.2009 22.0866 63.4819Z" fill="#2D3F50" stroke="#2D3E50" stroke-miterlimit="10"/>
<path d="M51.164 56.522L45.4371 70.4834H44.2835L38.5566 56.522H39.7102L44.8616 69.2502L50.013 56.522H51.1666H51.164Z" fill="#2D3F50" stroke="#2D3E50" stroke-miterlimit="10"/>
<path d="M55.6602 70.4424V56.5195H56.7136V70.4424H55.6602Z" fill="#2D3F50" stroke="#2D3E50" stroke-miterlimit="10"/>
<path d="M62.8798 56.5215L72.2474 68.037V56.5215H73.3008V70.4444H72.882L63.4939 58.9494V70.4444H62.4199V56.5215H62.8773H62.8798Z" fill="#2D3F50" stroke="#2D3E50" stroke-miterlimit="10"/>
<path d="M89.987 59.0858C88.7743 57.8937 87.0837 57.295 85.5113 57.295C81.4339 57.295 79.345 60.278 79.3656 63.4998C79.3656 66.7808 81.4544 69.6044 85.5113 69.6044C87.004 69.6044 88.5533 69.088 89.748 67.9935V64.0959H84.8947V63.1607H90.7603V68.3712C89.3087 69.8228 87.577 70.6193 85.5087 70.6193C80.7761 70.6193 78.3302 67.3178 78.3302 63.5204C78.3096 59.1655 81.2746 56.3213 85.5087 56.3213C87.3381 56.3213 89.1879 57.0176 90.601 58.4101L89.9844 59.0858H89.987Z" fill="#2D3F50" stroke="#2D3E50" stroke-miterlimit="10"/>
<path d="M113.355 59.8826C113.355 57.6936 111.644 57.3159 109.794 57.3159C107.129 57.3159 105.855 58.5492 105.876 60.119C105.896 62.2464 108.162 62.9041 109.832 62.9041H115.739V63.7597H114.467V66.8017C114.467 68.2944 114.806 69.6253 116.196 69.6073V70.4423C115.063 70.6016 114.167 69.8463 113.869 68.6721C112.854 70.3216 111.263 70.6222 109.771 70.6222C106.389 70.6222 104.619 69.1295 104.619 66.7452C104.619 65.0135 106.032 63.8008 107.425 63.3434C105.973 62.9067 104.858 61.694 104.858 60.1421C104.858 57.9942 106.628 56.4424 109.809 56.4424C112.037 56.4424 114.285 57.0179 114.285 59.8826H113.35H113.355ZM113.594 63.7597H109.776C107.032 63.7597 105.639 65.3115 105.639 66.7426C105.639 68.5334 106.952 69.687 109.755 69.687C111.345 69.687 113.594 69.1294 113.594 66.8043V63.7622V63.7597Z" fill="#F19C23" stroke="#F19C23" stroke-miterlimit="10"/>
<path d="M138.454 59.2066C137.439 57.5751 135.807 57.3362 134.238 57.3182C132.606 57.3182 130.021 57.9142 130.021 60.1418C130.021 61.912 131.93 62.3308 134.279 62.7676C136.964 63.284 139.749 63.7619 139.749 66.7654C139.728 69.9076 136.565 70.663 134.24 70.663C132.072 70.663 129.605 69.7689 128.531 67.6389L129.487 67.1611C130.343 68.8516 132.529 69.6866 134.24 69.6866C135.951 69.6866 138.675 69.2088 138.675 66.7423C138.695 64.6534 136.388 64.1961 134.101 63.7593C131.555 63.2609 128.95 62.7445 128.95 60.1803C128.891 57.236 131.954 56.3213 134.24 56.3213C136.229 56.3213 137.96 56.6399 139.332 58.6876L138.456 59.204L138.454 59.2066Z" fill="#2D3F50" stroke="#2D3E50" stroke-miterlimit="10"/>
<path d="M148.599 57.4958H143.568V56.54H154.706V57.4958H149.676V70.4424H148.602V57.4958H148.599Z" fill="#2D3F50" stroke="#2D3E50" stroke-miterlimit="10"/>
<path d="M172.803 63.5025C172.783 67.1611 170.458 70.681 165.782 70.681C161.106 70.681 158.76 67.1405 158.76 63.4613C158.76 59.7821 161.088 56.3008 165.782 56.3008C170.476 56.3008 172.821 59.741 172.803 63.4999V63.5025ZM159.816 63.4819C159.836 66.6241 161.825 69.6867 165.782 69.6867C169.738 69.6867 171.768 66.6241 171.768 63.4819C171.768 60.3397 169.779 57.2977 165.782 57.2977C161.784 57.2977 159.795 60.2009 159.816 63.4819Z" fill="#2D3F50" stroke="#2D3E50" stroke-miterlimit="10"/>
<path d="M189.093 70.4419H187.68L182.867 65.1724H179.07V70.4419H177.996V56.519H184.121C187.145 56.519 188.677 58.6875 188.695 60.856C188.715 63.1221 187.222 65.1133 184.18 65.1133L189.093 70.4445V70.4419ZM179.07 64.1575H184.003C186.428 64.1575 187.502 62.7855 187.523 60.8354C187.544 59.2039 186.428 57.5134 184.121 57.5134H179.07V64.1549V64.1575Z" fill="#2D3F50" stroke="#2D3E50" stroke-miterlimit="10"/>
<path d="M204.586 70.4424L203.055 67.0227H194.741L193.23 70.4424H192.076L198.322 56.5195H199.496L205.742 70.4424H204.589H204.586ZM202.636 66.0284L198.898 57.5549L195.159 66.0284H202.638H202.636Z" fill="#2D3F50" stroke="#2D3E50" stroke-miterlimit="10"/>
<path d="M220.476 59.0858C219.264 57.8937 217.573 57.295 216.001 57.295C211.923 57.295 209.834 60.278 209.855 63.4998C209.855 66.7808 211.944 69.6044 216.001 69.6044C217.493 69.6044 219.043 69.088 220.237 67.9935V64.0959H215.384V63.1607H221.252V68.3712C219.801 69.8228 218.069 70.6193 216.001 70.6193C211.268 70.6193 208.822 67.3178 208.822 63.5204C208.802 59.1655 211.767 56.3213 216.001 56.3213C217.83 56.3213 219.68 57.0176 221.093 58.4101L220.476 59.0858Z" fill="#2D3F50" stroke="#2D3E50" stroke-miterlimit="10"/>
<path d="M227.833 62.9448H235.988V63.9185H227.833V69.4065H236.623V70.4419H226.777V56.519H236.384V57.5339H227.831V62.9448H227.833Z" fill="#2D3F50" stroke="#2D3E50" stroke-miterlimit="10"/>
<path d="M23.2699 46.7302C36.1215 46.7302 46.5398 36.3119 46.5398 23.4603C46.5398 10.6087 36.1215 0.19043 23.2699 0.19043C10.4183 0.19043 0 10.6087 0 23.4603C0 36.3119 10.4183 46.7302 23.2699 46.7302Z" fill="#2D3F50"/>
<path d="M25.7335 46.3559C37.2806 44.9953 45.5385 34.5315 44.1779 22.9844C42.8174 11.4372 32.3536 3.17933 20.8064 4.53989C9.25926 5.90046 1.00139 16.3642 2.36196 27.9114C3.72253 39.4586 14.1863 47.7164 25.7335 46.3559Z" fill="white"/>
<path d="M37.2167 33.3444C37.2861 33.6013 37.1345 33.8634 36.8776 33.9328L30.9425 35.5411C30.6856 35.6105 30.4236 35.4589 30.3542 35.202L29.5012 32.052C29.4318 31.7951 29.5834 31.5331 29.8403 31.4611L35.7754 29.8527C36.0323 29.7834 36.2969 29.935 36.3637 30.1919L37.2167 33.3418V33.3444Z" fill="#F19C22"/>
<path d="M35.9335 28.9147C36.0029 29.1716 35.8513 29.4363 35.5969 29.5031L29.6619 31.1114C29.405 31.1808 29.1404 31.0292 29.071 30.7723L28.218 27.6224C28.1486 27.3654 28.3002 27.1034 28.5571 27.0314L34.4921 25.4231C34.7491 25.3537 35.0137 25.5053 35.0831 25.7622L35.9361 28.9121L35.9335 28.9147Z" fill="#F19C22"/>
<path d="M34.5956 24.5446C34.665 24.8015 34.5134 25.0661 34.2565 25.133L28.324 26.7413C28.0671 26.8107 27.8025 26.6591 27.7331 26.4022L26.8801 23.2522C26.8107 22.9953 26.9623 22.7307 27.2192 22.6613L33.1543 21.0529C33.4112 20.9836 33.6732 21.1352 33.7452 21.3921L34.5982 24.542L34.5956 24.5446Z" fill="#F19C22"/>
<path d="M21.1591 13.2397C21.1591 14.5449 20.1006 15.6034 18.7954 15.6034C17.4902 15.6034 16.4316 14.5449 16.4316 13.2397C16.4316 11.9345 17.4902 10.876 18.7954 10.876C20.1006 10.876 21.1591 11.9345 21.1591 13.2397Z" fill="#F19C22"/>
<path d="M22.691 11.886H21.3242V11.7267C21.3242 10.7401 20.5251 9.93848 19.5359 9.93848H18.2179C17.2313 9.93848 16.4297 10.7375 16.4297 11.7267V12.6157H22.6884C22.8914 12.6157 23.0533 12.4512 23.0533 12.2508C23.0533 12.0504 22.8888 11.886 22.6884 11.886H22.691Z" fill="#F19C22"/>
<path d="M23.9177 23.0647L21.6825 21.5052L20.3131 18.4272C19.7992 17.5896 18.864 17.0218 18.4169 16.9242C18.2679 16.8651 18.1086 16.8086 17.9339 16.7649C16.5876 16.4155 15.213 17.2248 14.8636 18.5711L12.8185 25.9911C12.7209 26.3637 12.7157 26.7388 12.7851 27.0934V32.124L10.4984 37.2523C10.185 37.9588 10.4984 38.7836 11.205 39.0996C11.39 39.1818 11.5827 39.2229 11.7728 39.2229C12.3072 39.2229 12.8185 38.9146 13.0497 38.393L15.4571 32.9924C15.5368 32.8126 15.5779 32.6199 15.5779 32.422V29.1205C15.7218 29.1025 15.8631 29.0691 16.0018 29.0255L17.8697 31.8542L18.458 37.9563C18.5274 38.6808 19.1363 39.2203 19.848 39.2203C19.8943 39.2203 19.9379 39.2203 19.9842 39.2152C20.7524 39.1407 21.3151 38.4573 21.2431 37.689L20.6214 31.2402C20.5982 31.0115 20.5212 30.7931 20.3953 30.603L17.8363 26.7285L19.1183 22.0781L19.4601 22.8309C19.5448 23.0211 19.6733 23.1881 19.8352 23.3165L22.3171 25.0739C22.5535 25.2615 22.8335 25.3514 23.1136 25.3514C23.4912 25.3514 23.8664 25.1844 24.1181 24.8658C24.5575 24.3108 24.465 23.5041 23.91 23.0647H23.9177Z" fill="#F19C22"/>
<path d="M29.4552 35.0708C29.5091 35.0708 29.5631 35.0733 29.617 35.0785L26.3952 24.3543C26.3181 24.0948 26.0971 23.9047 25.8325 23.8636L23.5587 23.5142C23.1784 23.4551 22.8187 23.7171 22.7622 24.1C22.7031 24.4828 22.9652 24.8399 23.348 24.8964L25.185 25.1791L28.281 35.4818C28.6048 35.2249 29.0133 35.0708 29.4578 35.0708H29.4552Z" fill="#F19C22"/>
<path d="M39.3546 34.4796C39.2595 34.1045 38.8792 33.8784 38.5067 33.9709L30.9941 35.8593C31.2202 36.1702 31.3538 36.553 31.3538 36.9667C31.3538 37.0514 31.3461 37.1337 31.3359 37.2159L38.8484 35.3275C39.2235 35.2324 39.4496 34.8521 39.3571 34.4796H39.3546Z" fill="#F19C22"/>
<path d="M29.4542 39.3337C28.149 39.3337 27.0879 38.2726 27.0879 36.9674C27.0879 35.6622 28.149 34.6011 29.4542 34.6011C30.7594 34.6011 31.8205 35.6622 31.8205 36.9674C31.8205 38.2726 30.7594 39.3337 29.4542 39.3337ZM29.4542 35.7598C28.7887 35.7598 28.2466 36.3019 28.2466 36.9674C28.2466 37.6328 28.7887 38.1749 29.4542 38.1749C30.1196 38.1749 30.6617 37.6328 30.6617 36.9674C30.6617 36.3019 30.1196 35.7598 29.4542 35.7598Z" fill="#F19C22"/>
<path d="M68.8056 9.99193L74.0803 22.0881H83.3117L73.5459 0.313477H64.0653L54.2969 22.0881H63.5283L68.8056 9.99193Z" fill="#2D3F50"/>
<path d="M77.3641 29.6109H60.2451L62.4829 24.4878H53.2207L43.3906 46.4011H52.807L56.756 37.7093H80.8532L84.7379 46.4011H94.2185L84.3885 24.4878H75.1289L77.3641 29.6109Z" fill="#2D3F50"/>
<path d="M120.881 33.0358H122.595L129.005 24.4878H114.633L120.881 33.0358Z" fill="#2D3F50"/>
<path d="M106.202 24.4878H97.5098V46.4679H106.202V24.4878Z" fill="#2D3F50"/>
<path d="M106.202 12.9544L112.879 22.0882H130.808L137.606 13.0212V22.0882H146.298V0.380371H136.355L121.936 20.1972L107.517 0.380371H97.5098V22.0882H106.202V12.9544Z" fill="#2D3F50"/>
<path d="M146.297 24.4878H137.605V46.4679H146.297V24.4878Z" fill="#2D3F50"/>
<path d="M154.33 46.4011H188.83V37.8429H162.955V27.4399H187.908V24.4878H154.33V46.4011Z" fill="#2D3F50"/>
<path d="M187.908 19.3415H162.955V8.74069H188.83V0.313477H154.33V22.0881H187.908V19.3415Z" fill="#2D3F50"/>
<path d="M221.732 24.4878H208.798L193.766 46.1365V46.4011H203.511L215.296 29.0842L227.081 46.4011H236.824V46.1365L221.732 24.4878Z" fill="#2D3F50"/>
<path d="M236.363 0.709145V0.313477H226.815L215.295 17.4968L203.771 0.313477H194.227V0.709145L209.064 22.0881H221.461L236.363 0.709145Z" fill="#2D3F50"/>
<path d="M237 50.0859H2.33594V51.5864H237V50.0859Z" fill="#F19C22"/>
</g>
<defs>
<clipPath id="clip0_1_98">
<rect width="237" height="70.619" fill="white" transform="translate(0 0.19043)"/>
</clipPath>
</defs>
</svg>
