<svg width="25" height="20" viewBox="0 0 25 20" fill="none" xmlns="http://www.w3.org/2000/svg">
<g clip-path="url(#clip0_1_792)">
<path d="M24.4619 5.67725V18.0933C23.9598 19.5027 23.34 19.9981 22.0449 19.9981C15.4995 20.0001 8.95422 20.0008 2.40823 19.9981C0.900634 19.9974 0.00203098 19.0913 0.000677666 17.5776C-0.00202897 13.7999 -0.000675651 10.0221 0.000677666 6.24429C0.000677666 6.1279 0.0108275 6.01152 0.0182708 5.85182C0.153603 5.92423 0.241568 5.96753 0.326827 6.01693C3.99499 8.13284 7.66587 10.2454 11.3279 12.3714C11.8266 12.661 12.2699 12.684 12.778 12.389C16.0706 10.4754 19.3714 8.57673 22.6714 6.67667C23.2635 6.33563 23.8644 6.01016 24.4619 5.67725Z" fill="#F39D22"/>
<path d="M24.4619 1.83113V3.1134C24.3029 3.19189 24.1385 3.26159 23.9855 3.34955C20.1042 5.58794 16.2222 7.82633 12.3457 10.0728C12.144 10.1899 12.0012 10.1933 11.8003 10.0742C10.8732 9.52339 9.93607 8.99086 9.00228 8.45224C6.1028 6.78021 3.20332 5.10954 0.307217 3.43346C0.192185 3.36647 0.02505 3.24941 0.0223434 3.15197C0.0101636 2.67087 -0.0182561 2.17555 0.0771528 1.71001C0.291654 0.667279 1.17943 0.00482984 2.28644 0.00279986C5.26577 -0.00193675 8.2451 0.000769887 11.2244 0.000769887C14.8561 0.000769887 18.4877 -0.00058343 22.1193 0.00144655C23.2886 0.0021232 24.0809 0.603673 24.401 1.71678C24.4125 1.75738 24.4409 1.79324 24.4619 1.83113Z" fill="#F39D22"/>
</g>
<defs>
<clipPath id="clip0_1_792">
<rect width="24.4619" height="20" fill="white"/>
</clipPath>
</defs>
</svg>
