<svg width="30" height="30" viewBox="0 0 30 30" fill="none" xmlns="http://www.w3.org/2000/svg">
<g clip-path="url(#clip0_1_166)">
<path d="M24.0697 12.4891C27.4576 12.4842 30.0208 15.0334 30.0013 18.0798C29.9958 18.9665 29.7137 19.7978 29.4151 20.6191C28.6349 22.7662 27.5987 24.795 26.5194 26.8027C26.0112 27.7474 25.4781 28.6791 24.945 29.6098C24.6674 30.0944 24.0932 30.1069 23.8182 29.6308C22.2487 26.9146 20.7453 24.164 19.574 21.2471C19.2269 20.3828 18.9043 19.5056 18.7933 18.5734C18.6393 17.28 18.9649 16.0875 19.6866 15.0205C20.8064 13.3649 22.3953 12.5391 24.0697 12.4886V12.4891ZM24.3688 28.0996C24.4288 27.9982 24.4728 27.9308 24.5103 27.8598C25.238 26.487 25.9872 25.1247 26.6859 23.7369C27.3991 22.3196 28.0623 20.8769 28.5264 19.3532C28.7325 18.6753 28.823 17.9924 28.6775 17.2875C28.1908 14.932 26.0463 13.4368 23.6606 13.7955C21.2715 14.1547 19.5795 16.5716 20.1092 18.8851C20.2052 19.3047 20.3377 19.7189 20.4853 20.124C21.2185 22.1353 22.1877 24.0381 23.187 25.926C23.5676 26.6454 23.9637 27.3558 24.3693 28.1001L24.3688 28.0996Z" fill="#1F1F1F"/>
<path d="M4.15832 4.64192e-06C6.76252 -0.00349233 8.77055 1.9693 8.73204 4.33275C8.72304 4.88377 8.5605 5.45128 8.37045 5.97632C7.77929 7.61141 6.88605 9.09612 5.96731 10.5638C5.62771 11.1069 5.27512 11.6424 4.91502 12.172C4.62645 12.5966 4.12331 12.6051 3.83774 12.1864C2.62691 10.4115 1.48361 8.59506 0.625381 6.61877C0.381816 6.05825 0.163258 5.46827 0.0597302 4.86978C-0.16733 3.55492 0.265285 2.40192 1.14802 1.42627C2.00825 0.474593 3.10504 0.0169899 4.15832 4.64192e-06ZM4.36938 10.7577C5.48868 8.97672 6.59147 7.23573 7.30516 5.28542C7.48921 4.78236 7.54373 4.2693 7.4357 3.74126C7.0726 1.9653 5.25562 0.876745 3.48864 1.37681C1.92773 1.81843 0.764918 3.60888 1.46561 5.39583C2.2073 7.28869 3.26909 9.0027 4.36938 10.7577Z" fill="#1F1F1F"/>
<path d="M14.7481 19.0036C14.7171 19.3778 14.5881 19.6146 14.3165 19.7185C14.0584 19.8174 13.7564 19.7465 13.6043 19.5162C13.5258 19.3973 13.4828 19.2444 13.4613 19.101C13.3462 18.3382 13.2477 17.5728 13.1347 16.8095C13.0782 16.4278 13.2722 16.1171 13.6323 16.0462C13.9549 15.9827 14.285 16.1925 14.3485 16.5482C14.4945 17.3645 14.6166 18.1848 14.7481 19.0041V19.0036Z" fill="#1F1F1F"/>
<path d="M15.1834 24.1176C15.2074 24.4243 14.9903 24.6841 14.6958 24.729C14.3687 24.779 14.0551 24.6031 13.9961 24.2739C13.877 23.613 13.792 22.9456 13.7 22.2797C13.6705 22.0663 13.651 21.8495 13.6485 21.6342C13.645 21.311 13.8785 21.0552 14.1866 21.0202C14.5182 20.9823 14.8263 21.1691 14.8713 21.4978C14.9913 22.3691 15.0809 23.2438 15.1829 24.1176H15.1834Z" fill="#1F1F1F"/>
<path d="M17.7167 28.241C17.7167 28.7096 17.2246 29.0308 16.82 28.793C15.9612 28.289 15.3041 27.5796 14.8434 26.6979C14.6914 26.4071 14.8314 26.0619 15.119 25.9105C15.4141 25.7552 15.7352 25.8361 15.9332 26.1124C16.1508 26.4156 16.3463 26.7398 16.5984 27.0116C16.839 27.2709 17.132 27.4847 17.4166 27.6995C17.6042 27.8409 17.7147 28.0062 17.7167 28.241Z" fill="#1F1F1F"/>
<path d="M21.2019 30.0001C20.5592 29.9112 19.9146 29.8332 19.2749 29.7283C18.9683 29.6779 18.7928 29.4436 18.7818 29.1523C18.7678 28.7782 19.0438 28.4819 19.4174 28.5099C20.2632 28.5733 21.1084 28.6498 21.9531 28.7317C22.2767 28.7632 22.5113 29.0539 22.4993 29.3721C22.4867 29.6939 22.2407 29.9511 21.9076 29.9696C21.675 29.9826 21.441 29.9721 21.2079 29.9721C21.2064 29.9811 21.2044 29.9906 21.2029 29.9996L21.2019 30.0001Z" fill="#1F1F1F"/>
<path d="M11.0986 12.085C11.1551 12.1065 11.2856 12.1379 11.3981 12.2009C12.1728 12.6335 12.8145 13.2135 13.3071 13.9539C13.5367 14.2986 13.4847 14.6692 13.1786 14.8751C12.8735 15.0804 12.5074 14.9954 12.2764 14.6522C11.8783 14.0618 11.3651 13.6027 10.741 13.2605C10.4579 13.1051 10.3404 12.8238 10.4179 12.5491C10.4974 12.2668 10.735 12.0845 11.0986 12.0845V12.085Z" fill="#1F1F1F"/>
<path d="M7.26332 11.2153C7.77595 11.2698 8.29009 11.3103 8.79973 11.3842C9.0823 11.4252 9.26285 11.6639 9.28786 11.9427C9.31086 12.197 9.15332 12.4608 8.90025 12.5517C8.79473 12.5896 8.67219 12.5986 8.55916 12.5926C7.99451 12.5637 7.42986 12.5252 6.86521 12.4902C6.50211 12.4677 6.23354 12.185 6.24655 11.8393C6.25955 11.4971 6.52462 11.2478 6.88572 11.2408C7.01075 11.2383 7.13528 11.2408 7.26032 11.2408C7.26132 11.2328 7.26232 11.2243 7.26332 11.2163V11.2153Z" fill="#1F1F1F"/>
<path d="M27.5032 18.1018C27.5052 19.8243 26.0983 21.2311 24.3708 21.2331C22.6639 21.2351 21.2505 19.8233 21.25 18.1158C21.2495 16.4013 22.6524 14.9885 24.3578 14.9855C26.0913 14.9825 27.5017 16.3798 27.5032 18.1018ZM22.5038 18.0978C22.5013 19.1364 23.3356 19.9806 24.3658 19.9821C25.4011 19.9836 26.2493 19.1469 26.2528 18.1203C26.2558 17.0862 25.4216 16.2434 24.3878 16.2359C23.3561 16.2289 22.5068 17.0682 22.5038 18.0973V18.0978Z" fill="#1F1F1F"/>
<path d="M4.37159 2.49733C5.40137 2.49433 6.24659 3.3386 6.24709 4.3697C6.24709 5.39082 5.41287 6.23609 4.3976 6.24358C3.35082 6.25107 2.49609 5.4093 2.49609 4.3702C2.49609 3.3396 3.33682 2.49982 4.37159 2.49683V2.49733ZM4.36109 4.99266C4.69968 4.99866 4.98626 4.7244 4.99376 4.38569C5.00176 4.04399 4.73119 3.75723 4.3921 3.74874C4.038 3.73975 3.74743 4.01801 3.74593 4.3677C3.74443 4.70891 4.0175 4.98617 4.36059 4.99266H4.36109Z" fill="#1F1F1F"/>
</g>
<defs>
<clipPath id="clip0_1_166">
<rect width="30" height="30" fill="white"/>
</clipPath>
</defs>
</svg>
