<svg width="65" height="70" viewBox="0 0 65 70" fill="none" xmlns="http://www.w3.org/2000/svg">
<g clip-path="url(#clip0_1_225)">
<path d="M10.3365 37.4722C10.0238 37.4722 9.69458 37.5192 9.36532 37.6188C8.39967 37.9066 7.68027 38.554 7.48659 39.3066C5.03511 48.7888 2.58916 58.2876 0.212391 67.5374C-0.0504654 68.5667 -0.0698338 69.2363 0.157053 69.5296C0.386706 69.8256 1.048 69.9778 2.12709 69.9806C6.13357 69.9916 10.1373 69.9916 14.1438 69.9916H15.6766C31.3484 69.9944 47.0202 69.9972 62.6975 69.9972C63.605 69.9972 64.2165 69.8312 64.46 69.513C64.662 69.2529 64.6813 68.7963 64.5153 68.1599C61.8037 57.7038 59.344 48.2548 56.9949 39.279C56.6075 37.7987 56.3861 37.6271 54.8311 37.6216C51.9674 37.6133 49.1064 37.6133 46.2454 37.616H42.9417C42.9417 37.616 42.9362 37.616 42.9334 37.616C42.701 37.616 42.4686 37.6133 42.2334 37.6105C41.68 37.6022 41.1571 37.5967 40.6341 37.6271C40.0531 37.6631 39.0819 37.854 39.093 38.7366C39.104 39.5695 39.9507 39.7715 40.659 39.7936C41.2816 39.813 41.9208 39.8102 42.5378 39.8074C42.7813 39.8074 43.0192 39.8074 43.2655 39.8074H50.1302C50.3238 39.8074 50.5065 39.8877 50.6365 40.0288C50.9768 40.394 51.2674 40.7565 51.5275 41.0775C51.9812 41.6391 52.3465 42.0929 52.7172 42.2838C52.922 42.1759 53.3066 41.8411 53.5501 41.6308C53.8129 41.4012 54.0868 41.166 54.3552 40.9751C54.5406 40.845 54.7786 40.8118 54.9916 40.8893C55.2047 40.9668 55.3652 41.1439 55.4233 41.3652L62.0417 66.8125C62.0943 67.02 62.05 67.2413 61.92 67.4101C61.7899 67.5789 61.5879 67.6785 61.3721 67.6785H13.1781C12.9263 67.6785 12.6939 67.5429 12.5722 67.3216C12.4809 67.1528 12.4615 66.9591 12.5168 66.7793C12.467 66.7239 12.4145 66.6713 12.3646 66.616C12.0437 66.2701 11.7393 65.9437 11.446 65.8413C11.1112 65.7251 10.7266 65.7029 10.0155 66.7765C9.66415 67.305 8.95582 67.7228 8.36923 67.7504C7.15179 67.803 5.93712 67.7947 4.65051 67.7892C4.16907 67.7864 3.67656 67.7836 3.16745 67.7836C2.95716 67.7836 2.75795 67.6868 2.6279 67.5236C2.49786 67.3603 2.44805 67.1445 2.49232 66.9397C2.54766 66.6935 2.59747 66.4666 2.64174 66.2591C2.73304 65.8413 2.81052 65.4816 2.90459 65.1191C3.48288 62.8752 4.06393 60.634 4.64498 58.39C6.02566 53.0554 7.45339 47.5382 8.83961 42.1067C9.0748 41.1798 9.43449 39.7798 11.3962 39.694C11.5733 39.6691 12.0465 39.2402 12.2733 38.7837C12.2678 38.6149 12.0907 38.1833 11.9026 38.0117C11.5097 37.6576 10.9508 37.4722 10.3337 37.4722H10.3365Z" fill="#1F1F1F"/>
<path d="M31.7046 1.06532C26.0656 -0.960052 20.0448 -0.0718746 15.1889 3.5002C10.2859 7.10548 7.4969 12.7085 7.72379 18.4968C7.72655 18.519 7.72932 18.5494 7.73486 18.5909V18.6214C7.74039 18.6352 7.74039 18.6518 7.74316 18.6656C7.80126 19.825 8.2329 24.0085 9.02977 26.4987C11.4757 34.152 16.553 40.6459 25.0087 46.9351C25.4182 47.2395 25.9024 47.4332 26.6467 46.7802C27.2582 46.2434 27.8807 45.7149 28.5005 45.1837C30.0887 43.8279 31.7295 42.4278 33.1932 40.9282C38.3507 35.6434 41.588 30.0681 43.0904 23.884C44.2746 19.0115 43.7904 14.0532 41.7291 9.9222C39.6705 5.79397 36.1123 2.65076 31.7073 1.07086L31.7046 1.06532ZM41.5963 18.0735C41.5963 18.2008 41.5963 18.3308 41.5963 18.4581C41.6516 23.5105 39.9859 28.419 36.3557 33.903C34.0952 37.3146 31.118 40.491 26.9842 43.8971C26.6771 44.1516 26.1459 44.3093 25.6478 44.3093C25.2964 44.3093 24.9589 44.2291 24.7237 44.0492C16.6858 37.8126 12.1259 31.374 10.369 23.7816C8.84992 17.2185 9.85707 11.9337 13.4485 7.62566C17.5684 2.67843 24.8122 0.730529 31.0544 2.89148C37.3491 5.06904 41.386 10.5503 41.5935 17.1964C41.6018 17.4897 41.599 17.7802 41.599 18.0735H41.5963Z" fill="#1F1F1F"/>
<path d="M47.2394 54.8014C45.8449 55.5789 44.4061 56.5778 42.7211 57.9391C42.58 58.0719 42.4499 58.6308 42.5191 58.819C42.5855 59.0016 42.9148 59.2368 43.1555 59.4111C43.2025 59.4443 43.2495 59.4803 43.2966 59.5135C43.3768 59.5024 43.4488 59.4913 43.5124 59.483C43.5899 59.472 43.6812 59.4609 43.7282 59.4498C44.0547 59.2257 44.3867 59.0016 44.716 58.7775C45.9805 57.9197 47.2892 57.0316 48.4652 56.0521C48.5371 55.8363 48.5094 55.2912 48.4154 55.1113C48.2078 54.9259 47.6987 54.7793 47.4027 54.7793C47.3363 54.7793 47.2782 54.7876 47.2394 54.8014Z" fill="#1F1F1F"/>
<path d="M50.4344 52.3139C50.6392 52.3581 51.2589 52.1368 51.389 51.9625C51.9783 50.7865 52.4681 49.5055 52.9827 48.1524C53.1432 47.7291 53.3092 47.3002 53.4808 46.8603C53.395 46.7386 53.3148 46.6168 53.2345 46.4978C52.9855 46.1215 52.7254 45.7314 52.504 45.6401C52.3242 45.6069 51.7459 45.8172 51.591 45.9804C50.8439 47.7623 50.2407 49.6217 49.8008 51.5059C49.8478 51.7356 50.238 52.2392 50.4316 52.3139H50.4344Z" fill="#1F1F1F"/>
<path d="M28.5253 57.0481C27.6399 56.8212 26.713 56.6608 25.8968 56.5169C25.5924 56.4643 25.2991 56.4117 25.0224 56.3619L24.5382 56.409C24.2311 56.4366 24.0014 56.4588 23.769 56.4864C22.3856 56.6469 22.3081 57.0896 22.3468 57.6486C22.3939 58.3181 22.6235 58.5367 23.9793 58.6114C25.2382 58.6778 26.547 58.8051 27.983 58.9988C28.9763 59.1316 29.2281 58.7193 29.3554 58.2545C29.4329 57.9667 29.419 57.7288 29.3111 57.5434C29.1811 57.3221 28.9044 57.1477 28.5281 57.0509L28.5253 57.0481Z" fill="#1F1F1F"/>
<path d="M33.3587 60.5345C34.1307 60.6534 34.9275 60.7392 35.6967 60.825C35.9153 60.8499 36.1367 60.872 36.3553 60.8969C36.4493 60.8499 36.5545 60.8222 36.6679 60.8222C36.8588 60.8222 37.0498 60.8277 37.2379 60.8305C37.6419 60.8388 38.0209 60.8499 38.3862 60.8139C39.0585 60.7503 39.3629 60.4321 39.3712 59.7791C39.3767 59.3198 39.2605 58.8854 38.3723 58.8217L37.9435 58.7913C36.5185 58.6862 35.0438 58.5782 33.5967 58.5284C33.5635 58.5284 33.5303 58.5284 33.4998 58.5284C32.4484 58.5284 32.3875 59.1233 32.3599 59.4139C32.3128 59.887 32.3931 60.3878 33.3532 60.5345H33.3587Z" fill="#1F1F1F"/>
<path d="M18.6526 58.224C18.4478 58.1853 18.1849 58.271 17.9525 58.4509C16.5414 59.5355 15.0832 60.6589 13.7911 61.9095C13.6721 62.0396 13.5836 62.64 13.697 63.0633C13.7634 63.1574 14.0374 63.3206 14.1868 63.4092C14.2393 63.4396 14.2891 63.4701 14.3389 63.5005C14.4109 63.4894 14.4801 63.4811 14.5409 63.4728C14.599 63.4645 14.6682 63.4562 14.7152 63.4507C15.0058 63.2155 15.2963 62.9831 15.5896 62.7507C16.8292 61.7601 18.1102 60.7391 19.2502 59.6324C19.2889 59.4055 19.1921 58.8023 19.0012 58.4896C18.9099 58.3374 18.7937 58.2517 18.6526 58.224Z" fill="#1F1F1F"/>
<path d="M25.818 10.2845C25.7848 10.2845 25.7489 10.2845 25.7157 10.2845C21.2554 10.2845 17.592 13.9037 17.5284 18.4027C17.4979 20.5249 18.3225 22.5558 19.8526 24.1219C21.4103 25.7184 23.4772 26.6121 25.6686 26.6342C25.6963 26.6342 25.724 26.6342 25.7516 26.6342C30.1759 26.6342 33.8089 23.0566 33.8642 18.6212C33.8919 16.4354 33.0646 14.363 31.5372 12.7803C30.0099 11.2004 27.979 10.315 25.818 10.2901V10.2845ZM25.6907 24.7084H25.6603C23.9642 24.7001 22.4203 24.0776 21.3135 22.957C20.1818 21.8143 19.5676 20.215 19.5814 18.4552C19.5953 16.5765 20.204 14.9938 21.3439 13.8788C22.459 12.7886 23.9974 12.2186 25.8042 12.2518C27.5667 12.2767 29.0802 12.8882 30.1787 14.0199C31.3131 15.1875 31.8997 16.7978 31.8693 18.6683C31.8167 22.0605 29.1051 24.7112 25.6935 24.7112L25.6907 24.7084Z" fill="#1F1F1F"/>
</g>
<defs>
<clipPath id="clip0_1_225">
<rect width="64.6267" height="70" fill="white"/>
</clipPath>
</defs>
</svg>
