<svg width="26" height="25" viewBox="0 0 26 25" fill="none" xmlns="http://www.w3.org/2000/svg">
<path d="M26 13.1C25.9801 13.2516 25.9557 13.4027 25.9405 13.5553C25.8596 14.3686 25.3289 14.9038 24.5897 14.9141C23.761 14.9259 23.1266 14.2896 23.2365 13.4552C23.5173 11.3227 22.8091 9.46203 21.5942 7.74703C20.3035 5.92508 18.6557 4.4691 16.5978 3.47571C15.3616 2.87919 14.0561 2.54757 12.6606 2.62115C12.4078 2.6344 12.1549 2.67217 11.9021 2.6707C11.1563 2.66579 10.6333 2.21987 10.5514 1.53652C10.471 0.86494 10.8836 0.288039 11.5994 0.130569C12.3315 -0.0303352 13.0793 -0.0234674 13.8216 0.0491357C16.7393 0.334152 19.1802 1.60127 21.3139 3.47963C22.8091 4.79581 24.0433 6.30576 24.9036 8.08404C25.4653 9.24569 25.8326 10.4598 25.9537 11.7397C25.9613 11.8187 25.9847 11.8962 26.0005 11.9742V13.1005L26 13.1Z" fill="#F39D22"/>
<path d="M19.1171 24.9958C17.9084 24.9913 16.7611 24.6901 15.6455 24.2727C13.004 23.2842 10.6954 21.7777 8.56625 19.9994C6.15377 17.9842 4.04604 15.7109 2.3748 13.08C1.39394 11.5377 0.589613 9.91737 0.190756 8.13565C0.0116769 7.33456 -0.0951599 6.5217 0.118514 5.71276C0.196352 5.41892 0.299627 5.08975 0.503126 4.87685C1.12074 4.23078 1.74854 3.58029 2.45417 3.02939C3.49863 2.21408 4.49424 2.21506 5.55294 3.02694C6.64726 3.8658 7.46278 4.9367 7.98272 6.19793C8.35665 7.10498 8.13076 7.90901 7.47194 8.61689C7.19518 8.91417 6.91537 9.21145 6.61165 9.48175C6.2077 9.84133 6.0856 10.2784 6.27943 10.7464C6.49056 11.2566 6.73527 11.7678 7.05476 12.2196C8.19079 13.8271 9.62648 15.1796 11.0937 16.4997C11.9296 17.2518 12.7975 17.9724 13.7911 18.5243C14.2016 18.7524 14.6646 18.9059 15.1204 19.0408C15.503 19.1537 15.8495 19.0168 16.1349 18.7396C16.4386 18.4443 16.7469 18.1534 17.0613 17.8684C17.829 17.1733 18.7117 16.9491 19.6986 17.3533C21.0356 17.9013 22.1915 18.6989 23.0594 19.8355C23.6821 20.6513 23.704 21.554 23.1067 22.387C22.7725 22.853 22.3528 23.2621 21.9595 23.6874C21.7687 23.894 21.5423 24.0701 21.3475 24.2737C20.8744 24.7681 20.2639 24.9443 19.5974 24.9948C19.4377 25.007 19.2764 24.9967 19.1156 24.9967L19.1171 24.9958Z" fill="#F39D22"/>
<path d="M13.3754 4.81934C13.7061 4.8993 14.2332 4.98809 14.7328 5.15439C17.6627 6.13159 19.6422 8.04184 20.6602 10.8645C20.8174 11.3006 20.9156 11.7603 20.9985 12.2165C21.1191 12.8842 20.6561 13.5337 19.9902 13.6838C19.2733 13.8457 18.5901 13.4758 18.38 12.7939C18.2406 12.3416 18.18 11.8618 17.9979 11.4277C17.1168 9.3276 15.5539 7.97316 13.235 7.46886C12.9496 7.40656 12.651 7.33739 12.4007 7.20003C11.8716 6.90962 11.6615 6.30917 11.8345 5.73472C12.0049 5.16862 12.5065 4.82768 13.3754 4.81934Z" fill="#F39D22"/>
</svg>
