<svg width="44" height="30" viewBox="0 0 44 30" fill="none" xmlns="http://www.w3.org/2000/svg">
<g clip-path="url(#clip0_1_190)">
<path d="M1.73908 30C1.16552 29.4558 1.28982 29.0131 1.83285 28.484C4.51528 25.8775 7.18681 23.258 9.80382 20.5888C10.2007 20.185 10.4319 19.5047 10.4951 18.9281C10.6064 17.9024 10.4842 16.855 10.5627 15.8249C10.5846 15.5355 10.9749 15.2764 11.1952 15.0021C11.4111 15.2829 11.7971 15.5528 11.8145 15.8444C11.8865 17.0148 11.8451 18.1939 11.8451 19.4443H15.1534C15.1534 17.5417 15.1534 15.6586 15.1534 13.7755C15.1534 12.5101 15.8113 11.8053 17.1271 11.6614C17.1271 9.9791 17.1816 8.27525 17.1074 6.57571C17.0616 5.52402 17.452 5.17634 18.4814 5.22817C19.7375 5.29079 20.9981 5.24329 22.3131 5.24329V1.38423H11.8494C11.8494 2.57412 11.9018 3.71003 11.8189 4.8373C11.7927 5.19146 11.398 5.5197 11.1712 5.86091C10.9575 5.51107 10.5824 5.16986 10.5584 4.80706C10.4777 3.669 10.5737 2.52014 10.5148 1.37991C10.4602 0.367098 10.8157 -0.0108174 11.8822 -1.98463e-05C16.6953 0.04533 21.5084 0.0194158 26.3215 0.0194158C31.4966 0.0194158 36.6717 0.0194158 41.8447 0.0194158C42.1696 0.0194158 42.5295 -0.0453697 42.8086 0.0712442C43.0572 0.174901 43.3669 0.49019 43.3647 0.71262C43.3647 0.911296 43.0093 1.19419 42.7541 1.28273C42.464 1.38423 42.1108 1.31944 41.7858 1.31944C36.2138 1.31944 30.6395 1.31944 25.0675 1.31944C24.6422 1.31944 24.2192 1.31944 23.7372 1.31944V19.5177C24.1712 19.5177 24.5572 19.5177 24.9432 19.5177C30.5523 19.5177 36.1614 19.5177 41.7705 19.5177C42.0606 19.5177 42.3943 19.4313 42.6276 19.5458C42.9307 19.6948 43.1532 20.0036 43.4105 20.2454C43.1466 20.4333 42.8937 20.768 42.6189 20.7853C41.6266 20.8523 40.6278 20.8112 39.557 20.8112C42.0475 24.8841 40.4969 28.9029 37.1363 30H36.0502C34.4582 29.54 33.2893 28.5833 32.5718 26.7521C31.8565 28.5812 30.6897 29.5357 29.0999 30H28.0138C24.7774 28.5013 23.5038 25.4952 24.808 22.3877C25.0217 21.8802 25.3139 21.4073 25.713 20.6406C24.6357 20.835 23.5518 20.7054 23.048 21.1784C19.9971 24.0419 17.0791 27.0436 14.1153 30H1.73908ZM3.78252 28.4127L3.93082 28.6481C6.96218 28.6481 9.99573 28.6676 13.0271 28.6222C13.3957 28.6157 13.8275 28.3285 14.111 28.0543C16.3289 25.9034 18.5206 23.7244 20.7146 21.5476C20.8934 21.3684 21.0264 21.146 21.2772 20.8177C19.6438 20.8177 18.2022 20.8112 16.7607 20.8177C15.0269 20.8264 13.0947 20.3772 11.6139 20.9883C10.096 21.6167 9.01217 23.2796 7.75165 24.504C6.41915 25.7976 5.10411 27.1084 3.78252 28.4106V28.4127ZM22.3022 19.4767V13.1169H16.5448V19.4767H22.3022ZM31.6689 24.5256C31.4661 23.8993 31.3309 23.0679 30.9427 22.3726C29.8043 20.3253 27.4839 20.3361 26.3019 22.351C25.5756 23.5905 25.4753 24.9165 25.9071 26.2748C26.3586 27.6936 27.5013 28.6546 28.6681 28.6287C29.8086 28.6049 30.8663 27.6958 31.3156 26.2878C31.477 25.7846 31.5271 25.2469 31.6689 24.5234V24.5256ZM39.5832 24.4673C39.3563 23.8475 39.1775 22.9513 38.7304 22.2106C37.6269 20.3815 35.5268 20.388 34.323 22.1545C33.503 23.3595 33.4136 24.6984 33.7451 26.0567C34.1158 27.5792 35.3349 28.6481 36.5562 28.6287C37.7861 28.6093 38.9311 27.5252 39.3106 25.9941C39.4131 25.5816 39.4632 25.1562 39.5853 24.4651L39.5832 24.4673ZM22.2848 11.6959V6.6081H18.5315V11.6959H22.2848ZM31.5947 20.8695C31.9611 21.4764 32.2446 21.945 32.5849 22.5065C32.9294 21.9104 33.2042 21.4332 33.5292 20.8695H31.5947Z" fill="#1F1F1F"/>
<path d="M0 10.0547C1.06207 9.04189 2.09797 8.00101 3.20801 7.04002C3.48062 6.80464 3.99311 6.84135 4.39657 6.75281C4.30279 7.15016 4.32678 7.64685 4.08907 7.92111C3.5853 8.50202 2.94413 8.96847 2.35749 9.48028C2.42291 9.58825 2.48616 9.69407 2.55158 9.80204C4.2679 9.80204 5.9864 9.80204 7.70272 9.80204C8.64266 9.80204 9.58478 9.78477 10.5247 9.80852C11.0285 9.82148 11.7722 9.60337 11.7765 10.4153C11.7809 11.2835 11.0067 11.0848 10.4637 11.0934C9.34271 11.1129 8.21958 11.0999 7.09863 11.0999C5.58949 11.0999 4.08253 11.0999 2.57339 11.0999C2.51233 11.1885 2.45126 11.277 2.3902 11.3634C2.93541 11.8536 3.54168 12.2963 4.00184 12.8556C4.26354 13.173 4.5296 13.8749 4.37258 14.0671C3.85572 14.6977 3.437 14.0865 3.06844 13.728C2.03472 12.7303 1.02063 11.7111 0 10.6982C0 10.4845 0 10.2685 0 10.0547Z" fill="#1F1F1F"/>
<path d="M41.4612 14.3133C41.4612 14.702 41.5506 15.121 41.435 15.473C41.3347 15.7753 41.001 15.9999 40.7699 16.2612C40.567 16.0172 40.2137 15.7861 40.1876 15.5269C40.1112 14.7193 40.1112 13.8943 40.1919 13.0867C40.2159 12.8448 40.6063 12.6397 40.8287 12.4172C41.0359 12.6245 41.363 12.8016 41.4241 13.0435C41.5244 13.4452 41.4503 13.8879 41.4503 14.3111C41.4546 14.3111 41.4568 14.3111 41.4612 14.3111V14.3133Z" fill="#1F1F1F"/>
<path d="M28.2622 14.2679C28.2622 14.7279 28.3298 15.2009 28.236 15.6414C28.1859 15.8768 27.8522 16.2201 27.6537 16.2158C27.4291 16.2115 27.0387 15.8854 27.0213 15.6759C26.9472 14.797 26.9472 13.9073 27.0148 13.0284C27.0322 12.8103 27.4095 12.6202 27.621 12.4172C27.8391 12.644 28.1641 12.8405 28.2447 13.1083C28.3538 13.4646 28.2709 13.8792 28.2709 14.2679C28.2687 14.2679 28.2666 14.2679 28.2644 14.2679H28.2622Z" fill="#1F1F1F"/>
<path d="M34.8593 14.3694C34.8593 14.797 34.9334 15.244 34.8309 15.6478C34.7699 15.8875 34.4297 16.2115 34.2116 16.2158C34.0066 16.2201 33.6358 15.8638 33.6162 15.6414C33.5442 14.7905 33.5421 13.9267 33.6097 13.0737C33.6271 12.8405 33.9739 12.6332 34.1701 12.415C34.4035 12.6375 34.7655 12.8253 34.8418 13.091C34.9574 13.4862 34.8724 13.9397 34.8724 14.3694C34.868 14.3694 34.8636 14.3694 34.8593 14.3694Z" fill="#1F1F1F"/>
<path d="M27.2387 24.7351C27.834 24.1693 28.1808 23.556 28.5973 23.5063C29.3475 23.4156 29.6834 24.1196 29.5416 24.7459C29.4391 25.2037 28.9572 25.5795 28.6453 25.992C28.2397 25.6313 27.8362 25.2707 27.2365 24.7351H27.2387Z" fill="#1F1F1F"/>
<path d="M35.1406 24.7459C35.7578 24.1801 36.1547 23.8152 36.5538 23.4524C36.8744 23.8713 37.3803 24.2536 37.4676 24.7157C37.581 25.3117 37.2822 26.0503 36.5015 25.9423C36.0849 25.884 35.7425 25.3009 35.1406 24.7481V24.7459Z" fill="#1F1F1F"/>
</g>
<defs>
<clipPath id="clip0_1_190">
<rect width="43.4118" height="30" fill="white"/>
</clipPath>
</defs>
</svg>
