<svg width="38" height="36" viewBox="0 0 38 36" fill="none" xmlns="http://www.w3.org/2000/svg">
<path d="M37.4374 18.8635C37.4088 19.0818 37.3737 19.2994 37.3517 19.5191C37.2352 20.6902 36.4711 21.4609 35.4067 21.4758C34.2133 21.4927 33.2998 20.5765 33.4581 19.375C33.8624 16.3043 32.8427 13.6249 31.0933 11.1554C29.2348 8.53188 26.862 6.43532 23.8987 5.00488C22.1185 4.14591 20.2387 3.66839 18.2293 3.77435C17.8652 3.79342 17.5011 3.84782 17.137 3.8457C16.0631 3.83863 15.31 3.19652 15.192 2.21252C15.0763 1.24548 15.6704 0.414765 16.7011 0.188014C17.7553 -0.0436815 18.8322 -0.0337921 19.901 0.0707535C24.1023 0.481165 27.6172 2.30577 30.6897 5.01053C32.8427 6.90577 34.6199 9.08004 35.8587 11.6407C36.6675 13.3134 37.1964 15.0617 37.3707 16.9047C37.3817 17.0184 37.4154 17.13 37.4381 17.2424V18.8642L37.4374 18.8635Z" fill="white"/>
<path d="M27.5279 35.993C25.7873 35.9867 24.1353 35.553 22.5288 34.9518C18.7253 33.5285 15.4008 31.3591 12.335 28.7985C8.86114 25.8966 5.82609 22.6232 3.41958 18.8349C2.00718 16.614 0.848975 14.2808 0.274637 11.7152C0.0167703 10.5616 -0.13707 9.39114 0.170611 8.22631C0.282695 7.80318 0.431408 7.32919 0.724438 7.02262C1.61378 6.09231 2.51778 5.15563 3.53386 4.36236C5.03784 3.18834 6.47149 3.18975 7.99597 4.35883C9.57174 5.56675 10.7461 7.1088 11.4948 8.92493C12.0332 10.231 11.7079 11.3888 10.7592 12.4081C10.3607 12.8362 9.95781 13.2643 9.52046 13.6535C8.9388 14.1713 8.76298 14.8007 9.04209 15.4746C9.34611 16.2092 9.69848 16.9453 10.1585 17.5959C11.7944 19.9107 13.8617 21.8582 15.9744 23.7591C17.1781 24.842 18.4278 25.8797 19.8586 26.6744C20.4497 27.0028 21.1164 27.2239 21.7728 27.4182C22.3237 27.5807 22.8226 27.3836 23.2335 26.9845C23.6709 26.5592 24.1148 26.1403 24.5675 25.7299C25.673 24.729 26.944 24.4061 28.3652 24.9882C30.2904 25.7773 31.9548 26.9258 33.2046 28.5625C34.1013 29.7373 34.1328 31.037 33.2727 32.2365C32.7914 32.9075 32.1871 33.4967 31.6208 34.1091C31.3461 34.4065 31.0201 34.6601 30.7395 34.9532C30.0582 35.6653 29.1791 35.9189 28.2194 35.9916C27.9894 36.0093 27.7572 35.9945 27.5257 35.9945L27.5279 35.993Z" fill="white"/>
<path d="M19.2614 6.93945C19.7376 7.05459 20.4966 7.18245 21.216 7.42192C25.4348 8.82904 28.2853 11.5797 29.7512 15.6443C29.9775 16.2723 30.1189 16.9342 30.2383 17.5911C30.412 18.5525 29.7453 19.4878 28.7864 19.7039C27.7542 19.937 26.7703 19.4044 26.4678 18.4225C26.2671 17.7712 26.1799 17.0804 25.9176 16.4552C24.6488 13.4312 22.3983 11.4808 19.0593 10.7547C18.6483 10.6649 18.2183 10.5653 17.8578 10.3676C17.096 9.94938 16.7934 9.08476 17.0425 8.25758C17.2879 7.4424 18.0102 6.95146 19.2614 6.93945Z" fill="white"/>
</svg>
