<svg width="37" height="30" viewBox="0 0 37 30" fill="none" xmlns="http://www.w3.org/2000/svg">
<path d="M36.6945 8.51611V27.1403C35.9413 29.2545 35.0116 29.9975 33.0689 29.9975C23.2508 30.0005 13.4328 30.0016 3.6137 29.9975C1.35229 29.9965 0.00437403 28.6374 0.00234403 26.3669C-0.00171595 20.7001 0.000314041 15.0334 0.00234403 9.36668C0.00234403 9.1921 0.017569 9.01752 0.0287339 8.77798C0.231733 8.88659 0.363683 8.95155 0.491572 9.02564C5.99387 12.1995 11.5002 15.3684 16.9934 18.5575C17.7414 18.9919 18.4063 19.0264 19.1685 18.5839C24.1075 15.7135 29.0586 12.8654 34.0088 10.0153C34.8969 9.5037 35.7982 9.01549 36.6945 8.51611Z" fill="white"/>
<path d="M36.6956 2.74672V4.67014C36.4571 4.78788 36.2105 4.89242 35.9811 5.02437C30.1591 8.38198 24.336 11.7396 18.5211 15.1094C18.2186 15.285 18.0045 15.29 17.703 15.1114C16.3125 14.2852 14.9067 13.4864 13.506 12.6785C9.15676 10.1704 4.8075 7.66438 0.463316 5.15023C0.290767 5.04975 0.0400624 4.87415 0.0360025 4.72799C0.0177325 4.00633 -0.0248973 3.26335 0.118217 2.56504C0.439971 1.00093 1.77165 0.00724482 3.43218 0.00419983C7.90121 -0.00290514 12.3702 0.00115484 16.8393 0.00115484C22.2868 0.00115484 27.7342 -0.000875152 33.1817 0.00216984C34.9356 0.00318483 36.1242 0.905517 36.6043 2.57519C36.6215 2.63609 36.6642 2.68988 36.6956 2.74672Z" fill="white"/>
</svg>
