<svg width="19" height="18" viewBox="0 0 19 18" fill="none" xmlns="http://www.w3.org/2000/svg">
<path d="M3.64429 6.25572C4.61908 6.25572 5.59386 6.25303 6.56826 6.2588C6.70718 6.25957 6.76722 6.21685 6.80994 6.08331C7.37102 4.3277 7.93788 2.57363 8.5059 0.819941C8.55323 0.674089 8.60672 0.528622 8.67638 0.392776C8.79991 0.1511 8.97501 -0.0286173 9.27826 0.00409354C9.57766 0.0364196 9.76854 0.204207 9.86051 0.488215C10.0125 0.956942 10.1645 1.42567 10.3162 1.89478C10.7664 3.28942 11.2186 4.68367 11.6631 6.08062C11.7089 6.22493 11.7785 6.26034 11.9217 6.25957C13.852 6.25033 15.7819 6.24648 17.7123 6.24494C17.832 6.24494 17.9593 6.25572 18.0698 6.29728C18.3041 6.38618 18.4392 6.57244 18.4677 6.82027C18.4973 7.07888 18.3853 7.28169 18.1783 7.43216C17.6753 7.79775 17.1712 8.16142 16.6674 8.52586C15.5872 9.30745 14.5089 10.091 13.4248 10.8672C13.3002 10.9565 13.2701 11.0311 13.3194 11.1797C13.9205 12.9965 14.5155 14.8156 15.1077 16.6351C15.1508 16.7671 15.1951 16.9114 15.1839 17.0453C15.1427 17.5364 14.6201 17.7865 14.1964 17.5244C14.0386 17.4271 13.8932 17.3097 13.7431 17.2004C12.293 16.1429 10.8422 15.0865 9.39563 14.0244C9.27787 13.9382 9.20283 13.9335 9.08238 14.0221C7.52727 15.1639 5.96907 16.3014 4.40742 17.4344C4.28697 17.5217 4.14073 17.6037 3.99719 17.6241C3.51845 17.6922 3.17634 17.237 3.32989 16.749C3.49152 16.2364 3.66354 15.7269 3.83055 15.2158C4.27042 13.8716 4.70836 12.5266 5.15361 11.1839C5.20172 11.0388 5.1817 10.9619 5.05317 10.8699C3.47612 9.73654 1.90369 8.59705 0.330494 7.45833C0.0334023 7.2432 -0.0681938 6.95419 0.0457169 6.65864C0.147698 6.39388 0.384755 6.24571 0.72033 6.24494C1.69511 6.2434 2.6699 6.24456 3.64429 6.24456V6.25726V6.25572Z" fill="#F39D22"/>
</svg>
