<svg width="32" height="30" viewBox="0 0 32 30" fill="none" xmlns="http://www.w3.org/2000/svg">
<g clip-path="url(#clip0_1_179)">
<path d="M23.8154 28.6571C23.7284 28.0787 23.328 27.7758 22.5019 27.8214C21.087 27.8999 19.6648 27.8689 18.248 27.8287C18.2263 27.8287 18.2064 27.8251 18.1846 27.8214C17.7335 27.7339 17.6719 27.0952 18.0796 26.8818C18.1303 26.8562 18.181 26.8398 18.2317 26.838C19.6793 26.7832 21.1305 26.7632 22.5762 26.8289C23.386 26.8653 23.7302 26.546 23.7955 25.7396H7.04813C7.12241 26.5241 7.45033 26.8854 8.31451 26.8307C9.57726 26.7504 10.8509 26.7778 12.1155 26.8325C12.4216 26.8453 12.9452 27.1153 12.9706 27.3142C13.0467 27.9565 12.485 27.8543 12.0774 27.8561C10.7494 27.8634 9.42146 27.8707 8.09348 27.8525C7.63693 27.8452 7.34344 27.9035 7.13872 28.4235C6.76551 29.3723 5.97923 29.8869 4.96287 29.9526C4.18022 30.0037 3.39213 30.0255 2.61129 29.969C2.60766 29.969 2.60404 29.969 2.60223 29.969C2.09676 29.9252 1.8848 29.2866 2.23264 28.9125L2.48084 28.6462L2.14206 27.8598C1.89748 27.8598 1.66015 27.8634 1.421 27.8598C0.350289 27.8397 0.0423001 27.5313 0.0223714 26.4293C0.00787787 25.6702 0.0151247 24.9094 0.0187481 24.1485C0.0259948 22.822 0.189048 22.6414 1.54963 22.4918V3.24231C0.739804 3.16202 0.0241831 2.99599 0.00244278 1.91035C-0.0283561 0.297409 0.2126 0 1.84856 0C8.79099 0 15.7334 0 22.6758 0C24.2738 0 24.9839 1.01265 24.3209 2.4997C24.1433 2.89746 23.5291 3.09816 22.9295 3.52147V15.582C23.9839 15.582 25.0057 15.531 26.0202 15.6039C26.4913 15.6386 27.033 15.8065 27.3899 16.1021C28.7414 17.2205 30.044 18.3992 31.3303 19.5943C31.593 19.8388 31.8648 20.2494 31.8593 20.5796C31.8394 22.0539 31.7144 23.5282 31.6437 25.0024C31.6347 25.1958 31.7126 25.3984 31.7706 25.59C32.1456 26.8289 31.4843 27.7703 30.1853 27.8379C29.9444 27.8506 29.6998 27.8598 29.4606 27.8379C28.9697 27.7904 28.6635 27.9035 28.4334 28.4363C28.0167 29.4034 27.2105 29.9088 26.1398 29.9179C25.4151 29.9252 24.6868 29.9726 23.9694 29.9069C23.9658 29.9069 23.9621 29.9069 23.9585 29.9069C23.4404 29.8522 23.2465 29.1862 23.6306 28.8304L23.8172 28.6571H23.8154ZM2.68194 3.22406V22.4717H7.99565C7.99565 21.3478 7.99203 20.2895 7.99565 19.2312C8.00109 17.6785 8.4685 17.1932 9.97221 17.1877C11.4814 17.1804 12.9905 17.1804 14.4978 17.1877C15.9617 17.1968 16.4472 17.6931 16.449 19.1601C16.449 20.2713 16.449 21.3824 16.449 22.4881H21.7718V3.22406H2.68194ZM22.9367 16.5746V20.3132H25.589C25.589 19.8972 25.5274 19.525 25.6072 19.1856C25.6108 19.1674 25.6162 19.151 25.6198 19.1327C25.7521 18.6638 26.4405 18.6638 26.5456 19.14C26.5456 19.1437 26.5456 19.1455 26.5474 19.1491C26.6326 19.556 26.5347 19.9976 26.5746 20.4191C26.6489 21.1817 26.3192 21.4609 25.5836 21.4317C24.6923 21.3952 23.8009 21.4226 22.9331 21.4226V24.6284H25.4024C25.8554 24.1412 25.156 23.1541 26.1326 23.1669C26.3536 23.1705 26.5619 24.0445 26.8301 24.6357H28.7686C28.4551 22.9151 29.2668 22.282 30.7687 22.5246C31.1455 21.1799 30.7741 20.2767 29.7487 19.5122C28.7106 18.7386 27.7957 17.7989 26.8101 16.9505C26.6163 16.7826 26.3554 16.6002 26.1181 16.591C25.0709 16.5527 24.0219 16.5746 22.9313 16.5746H22.9367ZM12.2169 2.07821C15.6573 2.07821 19.0977 2.08186 22.5381 2.07274C22.8878 2.07274 23.3933 2.26067 23.3878 1.59287C23.3824 0.943316 22.8896 1.10388 22.5327 1.10388C15.6519 1.09658 8.77106 1.09476 1.89023 1.11848C1.62391 1.11848 1.16918 1.35932 1.12569 1.5582C0.988006 2.19864 1.52789 2.07457 1.89567 2.07457C5.33608 2.08004 8.77649 2.07821 12.2169 2.07821ZM21.6685 24.5773C22.0055 23.5282 21.3569 23.6249 20.8207 23.623C14.5703 23.6212 8.31995 23.623 2.0714 23.623C1.89023 23.623 1.67826 23.5756 1.53695 23.6541C1.3594 23.7489 1.13113 23.9478 1.12569 24.1084C1.12207 24.258 1.35759 24.4842 1.53333 24.5481C1.74711 24.6266 2.0098 24.5773 2.25076 24.5773C8.37973 24.5773 14.5087 24.5773 20.6377 24.5773H21.6685ZM11.6843 18.193C10.9795 18.193 10.3418 18.131 9.72945 18.2222C9.46313 18.2624 9.04825 18.6072 9.03556 18.8335C8.96672 20.0359 9.00295 21.2438 9.00295 22.4827H11.6861V18.193H11.6843ZM15.458 22.4936C15.458 21.2383 15.4888 20.0341 15.429 18.8335C15.4182 18.6109 15.0595 18.2533 14.8294 18.2259C14.1627 18.1438 13.4778 18.1967 12.8256 18.1967V22.4954H15.458V22.4936ZM4.7509 28.9417C5.60783 28.9582 6.3778 28.2247 6.41223 27.358C6.44484 26.5096 5.70748 25.7195 4.84511 25.6812C3.91571 25.6392 3.1711 26.3618 3.16929 27.3069C3.16929 28.2101 3.85955 28.9235 4.7509 28.9417ZM26.0528 25.6794C25.1868 25.6867 24.4332 26.4384 24.4277 27.3014C24.4223 28.1882 25.2249 28.9618 26.1289 28.9417C27.0004 28.9217 27.6979 28.1736 27.6797 27.2741C27.6634 26.38 26.9406 25.6739 26.0528 25.6794ZM28.332 25.6976C28.6671 26.8708 28.8936 27.015 30.2379 26.7814C30.4679 26.7413 30.6582 26.4603 30.8665 26.2906C30.6509 26.0935 30.4516 25.7578 30.2143 25.7268C29.602 25.6465 28.9715 25.6994 28.3338 25.6994L28.332 25.6976ZM1.07497 26.7176C2.04604 27.0277 2.40838 26.5752 2.50802 25.745H1.07497V26.7176ZM29.832 24.6576C30.6872 24.7141 31.0115 24.393 30.8285 23.5665H29.832V24.6576Z" fill="#1F1F1F"/>
<path d="M15.1962 26.6027C15.4209 26.9639 15.68 27.2011 15.6419 27.3653C15.5966 27.5587 15.3086 27.7576 15.0894 27.8142C14.9988 27.8379 14.6962 27.4931 14.7053 27.3252C14.7143 27.1263 14.9535 26.9384 15.1962 26.6008V26.6027Z" fill="#1F1F1F"/>
<path d="M14.3215 7.03385C14.3239 8.76722 13.4634 9.63086 11.7398 9.62478C10.4046 9.62113 10.1093 9.32189 10.1039 7.96257C10.1003 7.14333 10.0894 6.32408 10.1093 5.50484C10.1292 4.70384 10.526 4.27324 11.3576 4.29331C11.9301 4.3079 12.5026 4.31155 13.0751 4.29331C13.903 4.26594 14.3088 4.66553 14.3215 5.48659C14.3288 6.00295 14.3215 6.51749 14.3215 7.03385ZM11.2 5.3461V8.50447H13.2816V5.34792H11.2V5.3461Z" fill="#1F1F1F"/>
<path d="M14.3221 13.3962C14.371 16.2499 14.304 16.0546 11.7259 16.0382C10.3563 16.0291 10.1099 15.7828 10.1045 14.3888C10.1027 13.721 10.1045 13.055 10.1045 12.3872C10.1045 12.2047 10.0936 12.0223 10.1135 11.8416C10.2258 10.818 10.7023 10.6337 13.0014 10.714C13.9416 10.7469 14.2786 11.0498 14.3185 11.942C14.3402 12.4255 14.3221 12.9127 14.3221 13.398V13.3962ZM11.2223 11.8234V14.9964H13.2659V11.8234H11.2223Z" fill="#1F1F1F"/>
<path d="M7.92235 6.93898C7.92235 7.45534 7.92416 7.9717 7.92235 8.48989C7.91872 9.18324 7.56182 9.57917 6.88424 9.61566C6.19218 9.65216 5.49467 9.64851 4.8026 9.61749C4.12865 9.5883 3.74095 9.19418 3.72283 8.51726C3.69747 7.48454 3.69566 6.44999 3.72283 5.41727C3.74095 4.69838 4.13409 4.30244 4.86964 4.29879C5.50373 4.29697 6.13783 4.30244 6.77011 4.29697C7.56725 4.28967 7.91872 4.71115 7.92053 5.48113C7.92053 5.9683 7.92053 6.45364 7.92053 6.94081L7.92235 6.93898ZM6.88787 8.51726V5.34611H4.82978V8.51726H6.88787Z" fill="#1F1F1F"/>
<path d="M20.7504 6.93887C20.7504 8.74036 19.8506 9.63623 18.051 9.6265C16.8426 9.62103 16.5418 9.33092 16.5328 8.14858C16.5273 7.23811 16.5219 6.32946 16.5382 5.41898C16.5527 4.69462 16.9223 4.29868 17.6633 4.29686C18.2648 4.29686 18.8681 4.28591 19.4695 4.29686C20.3591 4.3151 20.7106 4.66543 20.7468 5.57043C20.7649 6.02475 20.7504 6.4809 20.7504 6.93522V6.93887ZM17.5944 5.346V8.50438H19.6253V5.346H17.5944Z" fill="#1F1F1F"/>
<path d="M7.92234 13.3907V13.4819C7.92234 15.9907 7.002 16.7005 4.53084 15.9743C4.18843 15.874 3.79348 15.312 3.75181 14.9288C3.64311 13.9089 3.70109 12.8688 3.7192 11.838C3.73189 11.1501 4.13227 10.7979 4.79173 10.7249C4.94029 10.7085 5.09247 10.7158 5.24284 10.714C8.06547 10.6666 7.96039 10.7249 7.92053 13.3925L7.92234 13.3907ZM6.92047 11.8562H4.8334V14.9617H6.92047V11.8562Z" fill="#1F1F1F"/>
<path d="M16.5312 13.3615C16.5312 11.5819 17.4039 10.6988 19.1492 10.7122C20.4155 10.7231 20.7434 11.0497 20.7507 12.327C20.7543 13.1444 20.7706 13.9636 20.7453 14.7792C20.7181 15.6678 20.3485 16.0126 19.4553 16.0327C18.9444 16.0437 18.4335 16.0382 17.9226 16.0327C16.8302 16.0218 16.5512 15.7408 16.5349 14.6296C16.5294 14.2063 16.5349 13.7812 16.5349 13.3578L16.5312 13.3615ZM17.5929 11.8252V14.9854H19.6274V11.8252H17.5929Z" fill="#1F1F1F"/>
</g>
<defs>
<clipPath id="clip0_1_179">
<rect width="31.875" height="30" fill="white"/>
</clipPath>
</defs>
</svg>
