<svg width="29" height="30" viewBox="0 0 29 30" fill="none" xmlns="http://www.w3.org/2000/svg">
<path d="M14.4183 28.7111C22.3466 28.7111 28.7738 22.2839 28.7738 14.3555C28.7738 6.42719 22.3466 0 14.4183 0C6.48994 0 0.0627441 6.42719 0.0627441 14.3555C0.0627441 22.2839 6.48994 28.7111 14.4183 28.7111Z" fill="#2D3F50"/>
<path d="M15.938 28.48C23.0616 27.6406 28.156 21.1854 27.3167 14.0618C26.4773 6.93814 20.0221 1.84374 12.8984 2.6831C5.77483 3.52245 0.68043 9.97771 1.51978 17.1013C2.35914 24.2249 8.8144 29.3193 15.938 28.48Z" fill="white"/>
<path d="M23.0241 20.453C23.0669 20.6115 22.9734 20.7732 22.8149 20.816L19.1535 21.8082C18.995 21.851 18.8333 21.7575 18.7905 21.599L18.2643 19.6557C18.2215 19.4972 18.315 19.3356 18.4735 19.2912L22.1349 18.2989C22.2934 18.2561 22.4567 18.3497 22.4979 18.5082L23.0241 20.4514V20.453Z" fill="#F19C22"/>
<path d="M22.2311 17.7203C22.2739 17.8788 22.1804 18.0421 22.0235 18.0833L18.3621 19.0755C18.2036 19.1183 18.0403 19.0248 17.9975 18.8663L17.4713 16.9231C17.4285 16.7646 17.522 16.6029 17.6805 16.5585L21.3419 15.5663C21.5004 15.5235 21.6637 15.617 21.7065 15.7755L22.2327 17.7187L22.2311 17.7203Z" fill="#F19C22"/>
<path d="M21.4069 15.0243C21.4497 15.1828 21.3562 15.346 21.1977 15.3872L17.5379 16.3795C17.3794 16.4223 17.2161 16.3288 17.1733 16.1702L16.6471 14.227C16.6043 14.0685 16.6978 13.9053 16.8563 13.8625L20.5177 12.8702C20.6762 12.8274 20.8379 12.921 20.8823 13.0795L21.4085 15.0227L21.4069 15.0243Z" fill="#F19C22"/>
<path d="M13.1157 8.05026C13.1157 8.85545 12.4626 9.50848 11.6574 9.50848C10.8522 9.50848 10.1992 8.85545 10.1992 8.05026C10.1992 7.24507 10.8522 6.59204 11.6574 6.59204C12.4626 6.59204 13.1157 7.24507 13.1157 8.05026Z" fill="#F19C22"/>
<path d="M14.0619 7.21487H13.2187V7.1166C13.2187 6.50795 12.7257 6.01343 12.1155 6.01343H11.3024C10.6937 6.01343 10.1992 6.50637 10.1992 7.1166V7.66502H14.0603C14.1855 7.66502 14.2854 7.56358 14.2854 7.43995C14.2854 7.31632 14.184 7.21487 14.0603 7.21487H14.0619Z" fill="#F19C22"/>
<path d="M14.8184 14.1112L13.4394 13.1491L12.5946 11.2502C12.2776 10.7335 11.7006 10.3832 11.4248 10.323C11.3329 10.2865 11.2346 10.2517 11.1268 10.2247C10.2963 10.0092 9.4483 10.5084 9.23274 11.339L7.97106 15.9165C7.91083 16.1464 7.90766 16.3778 7.95046 16.5965V19.7L6.53979 22.8637C6.34641 23.2996 6.53979 23.8084 6.97567 24.0033C7.08979 24.054 7.20867 24.0794 7.32596 24.0794C7.65564 24.0794 7.97106 23.8892 8.11371 23.5674L9.59888 20.2357C9.64801 20.1248 9.67337 20.0059 9.67337 19.8838V17.8471C9.76214 17.836 9.84931 17.8154 9.9349 17.7884L11.0872 19.5335L11.4502 23.298C11.493 23.745 11.8686 24.0778 12.3077 24.0778C12.3362 24.0778 12.3632 24.0778 12.3917 24.0746C12.8656 24.0287 13.2127 23.6071 13.1683 23.1331L12.7848 19.1547C12.7705 19.0137 12.723 18.8789 12.6453 18.7616L11.0666 16.3714L11.8575 13.5025L12.0683 13.967C12.1206 14.0842 12.1999 14.1873 12.2998 14.2665L13.8309 15.3507C13.9767 15.4664 14.1495 15.5219 14.3222 15.5219C14.5552 15.5219 14.7867 15.4188 14.942 15.2223C15.213 14.8799 15.156 14.3822 14.8136 14.1112H14.8184Z" fill="#F19C22"/>
<path d="M18.2357 21.5181C18.269 21.5181 18.3022 21.5197 18.3355 21.5229L16.3479 14.907C16.3004 14.7469 16.1641 14.6296 16.0008 14.6042L14.5981 14.3887C14.3635 14.3522 14.1416 14.5139 14.1067 14.7501C14.0702 14.9862 14.2319 15.2065 14.4681 15.2414L15.6014 15.4158L17.5113 21.7717C17.711 21.6132 17.9631 21.5181 18.2373 21.5181H18.2357Z" fill="#F19C22"/>
<path d="M24.3434 21.1537C24.2847 20.9223 24.0502 20.7829 23.8203 20.8399L19.1857 22.0049C19.3252 22.1967 19.4076 22.4329 19.4076 22.688C19.4076 22.7404 19.4029 22.7911 19.3965 22.8418L24.0311 21.6768C24.2626 21.6182 24.402 21.3836 24.345 21.1537H24.3434Z" fill="#F19C22"/>
<path d="M18.2332 24.1476C17.4281 24.1476 16.7734 23.493 16.7734 22.6878C16.7734 21.8826 17.4281 21.228 18.2332 21.228C19.0384 21.228 19.693 21.8826 19.693 22.6878C19.693 23.493 19.0384 24.1476 18.2332 24.1476ZM18.2332 21.9429C17.8227 21.9429 17.4883 22.2773 17.4883 22.6878C17.4883 23.0984 17.8227 23.4328 18.2332 23.4328C18.6438 23.4328 18.9782 23.0984 18.9782 22.6878C18.9782 22.2773 18.6438 21.9429 18.2332 21.9429Z" fill="#F19C22"/>
</svg>
