<svg width="40" height="45" viewBox="0 0 40 45" fill="none" xmlns="http://www.w3.org/2000/svg">
<path d="M13.3898 0C13.6213 0.0678878 13.8552 0.128414 14.0843 0.205299C15.8534 0.798295 16.9306 2.42188 16.8268 4.33255C16.7335 6.04529 15.4068 7.55927 13.6696 7.93633C13.5371 7.96496 13.4046 7.99359 13.2279 8.03121C13.3776 10.6944 13.5281 13.3649 13.6802 16.0804H23.9533V19.838H14.0613C14.1251 20.714 14.1849 21.5335 14.2478 22.3915C14.6339 22.3915 14.984 22.3932 15.334 22.3915C19.4024 22.3645 23.47 22.3416 27.5383 22.3024C27.8483 22.2991 27.9857 22.3981 28.1051 22.6762C29.916 26.8811 31.7384 31.0804 33.5582 35.2812C33.6278 35.4415 33.7006 35.6002 33.7914 35.8031C35.2734 35.2706 36.7359 34.7455 38.2073 34.2163C38.6253 35.1594 39.0302 36.0722 39.435 36.9858V37.1494C36.8169 38.1701 34.1995 39.1917 31.5396 40.2289C31.4758 40.0955 31.4087 39.9696 31.3523 39.8379C29.4645 35.4162 27.571 30.9977 25.7029 26.5679C25.5336 26.1671 25.3275 26.0706 24.9218 26.0722C20.3651 26.0861 15.8076 26.0747 11.251 26.0926C10.8305 26.0943 10.7299 25.9618 10.7038 25.5749C10.3234 20.0122 9.92919 14.4511 9.53822 8.88922C9.48506 8.12936 9.44743 7.36788 9.36891 6.61129C9.3321 6.25304 9.26013 5.88498 9.1268 5.5529C8.18701 3.20872 9.55049 0.617534 12.019 0.0875181C12.1229 0.0629803 12.2251 0.0286274 12.329 0C12.6823 0 13.0365 0 13.3898 0Z" fill="white"/>
<path d="M8.64497 16.8516C8.75621 18.251 8.87072 19.6178 8.96069 20.9854C8.96887 21.1048 8.84291 21.2757 8.73086 21.3534C6.06033 23.224 4.47355 25.7858 4.12348 29.0076C3.68262 33.0759 5.13771 36.4442 8.42413 38.8775C14.8277 43.619 23.9181 39.9465 25.3257 32.1051C25.3519 31.9578 25.383 31.8122 25.4255 31.5922C25.5106 31.7329 25.5744 31.8229 25.6227 31.921C26.3817 33.4702 27.135 35.0234 27.9014 36.5693C28.0102 36.7893 28.0053 36.9603 27.885 37.1713C25.482 41.409 21.8995 44.0451 17.0917 44.8107C9.19953 46.067 1.9159 40.9419 0.287409 33.1087C-1.04745 26.6904 2.37721 19.7855 8.281 16.9963C8.38896 16.9456 8.50265 16.908 8.64416 16.8516H8.64497Z" fill="white"/>
</svg>
