<svg width="34" height="34" viewBox="0 0 34 34" fill="none" xmlns="http://www.w3.org/2000/svg">
<g clip-path="url(#clip0_1_26)">
<path d="M17.0801 0.000132849C26.5498 0.03676 34.0408 7.6652 34.0007 17.2349C33.9622 26.5032 26.2958 34.0101 16.948 34.0001C7.46987 33.9901 -0.153099 26.097 0.00233545 16.6871C0.154427 7.50537 7.77739 -0.0364943 17.0801 0.000132849ZM16.9798 31.9074C25.1944 31.914 31.9148 25.2479 31.9416 17.0651C31.9683 8.86724 25.2763 2.13283 17.0901 2.11785C8.81362 2.10287 2.07814 8.78233 2.08649 16.9951C2.09485 25.1946 8.79189 31.9007 16.9798 31.9074Z" fill="#F39D22"/>
<path d="M23.0624 26.5713C14.4701 26.2832 7.58082 19.3474 7.46884 10.8099C7.46215 10.2439 7.84656 9.64285 8.1474 9.11342C8.34629 8.7638 8.71732 8.5124 9.01482 8.22105C10.3118 6.95741 12.4026 7.34033 13.0528 9.02019C13.4305 9.9958 13.6979 11.028 13.8834 12.0602C14.0405 12.936 13.6361 13.7018 12.9391 14.2479C12.3993 14.6708 12.3876 15.112 12.6283 15.6947C13.7648 18.4583 15.6868 20.4012 18.5197 21.4418C18.971 21.6083 19.2952 21.6183 19.6178 21.227C20.522 20.1282 21.6368 19.8585 22.9755 20.3746C23.5421 20.5927 24.1571 20.6843 24.7354 20.8757C26.6474 21.5101 27.1639 23.6228 25.765 25.0446C24.3309 26.4997 24.1404 26.6079 23.0641 26.5713H23.0624Z" fill="#F39D22"/>
</g>
<defs>
<clipPath id="clip0_1_26">
<rect width="34" height="34" fill="white"/>
</clipPath>
</defs>
</svg>
